<svg width="18" height="18" viewBox="0 0 18 18" fill="none" xmlns="http://www.w3.org/2000/svg">
<path d="M2.36328 6.73631H15.6392L15.1935 16.3297H2.69166L2.36328 6.73631Z" fill="#424242"/>
<path d="M3.24468 1.69505H14.7131L15.0524 5.02576H2.94922L3.24468 1.69505Z" fill="#424242"/>
<rect x="1.70605" y="3.87763" width="14.5894" height="3.54181" fill="#424242"/>
<path d="M2.00488 9.81148H15.961L15.6527 14.315H2.22377L2.00488 9.81148Z" fill="#72E0CE"/>
<path d="M12.6503 3.66128L10.9426 3.20372L10.4184 5.16018L10.517 5.43323L10.2951 5.6204L10.3937 5.89344L10.1717 6.08061L10.2689 6.35896L10.0439 6.55779L10.1456 6.81917L9.9264 6.99626L7.70118 15.3009L9.40882 15.7585L11.634 7.45382L11.5255 7.17812L11.7515 7.01535L11.6488 6.71791L11.8821 6.52809L11.7736 6.2524L12.0054 6.06788L11.8969 5.79218L12.1287 5.60767L12.6503 3.66128Z" fill="white"/>
</svg>
