<svg width="18" height="18" viewBox="0 0 18 18" fill="none" xmlns="http://www.w3.org/2000/svg">
<path d="M2.36328 6.73631H15.6392L15.1935 16.3297H2.69166L2.36328 6.73631Z" fill="#9E9E9E"/>
<path d="M3.24566 1.69505H14.7141L15.0533 5.02576H2.9502L3.24566 1.69505Z" fill="#9E9E9E"/>
<rect x="1.70703" y="3.87763" width="14.5894" height="3.54181" fill="#9E9E9E"/>
<path d="M2.00586 9.81148H15.962L15.6536 14.315H2.22475L2.00586 9.81148Z" fill="#E0E0E0"/>
<path d="M12.6512 3.66128L10.9436 3.20372L10.4193 5.16018L10.5179 5.43323L10.296 5.6204L10.3946 5.89344L10.1727 6.08061L10.2699 6.35896L10.0449 6.55779L10.1466 6.81917L9.92737 6.99626L7.70216 15.3009L9.40979 15.7585L11.635 7.45382L11.5265 7.17812L11.7525 7.01535L11.6498 6.71791L11.8831 6.52809L11.7746 6.2524L12.0064 6.06788L11.8979 5.79218L12.1297 5.60767L12.6512 3.66128Z" fill="white"/>
</svg>
