<svg width="183" height="183" viewBox="0 0 183 183" fill="none" xmlns="http://www.w3.org/2000/svg">
<path d="M23.9148 68.1794H158.258L153.748 165.258H27.2378L23.9148 68.1794Z" fill="#424242"/>
<path d="M20.2946 99.2743H161.521L158.4 144.846H22.5096L20.2946 99.2743Z" fill="#00D2BA"/>
<path d="M32.8386 17.1494H148.891L152.324 50.8538H29.8487L32.8386 17.1494Z" fill="#424242"/>
<rect x="17.2685" y="39.2235" width="147.635" height="35.8406" fill="#424242"/>
<circle cx="100.372" cy="50.8344" r="7.59753" fill="white"/>
<path d="M74.7205 59.8376C74.7205 68.8762 82.0479 76.2033 91.0865 76.2033C100.125 76.2033 107.452 68.8762 107.452 59.8376L117.256 59.8376C117.256 74.2905 105.539 86.0069 91.0864 86.0069C76.6336 86.0069 64.9172 74.2905 64.9172 59.8376L74.7205 59.8376Z" fill="white"/>
<rect x="75.1457" y="45.6936" width="14.5033" height="7.59695" transform="rotate(15 75.1457 45.6936)" fill="white"/>
<path d="M78.6794 34.0389C76.5691 34.5142 71.6901 36.6051 69.0562 41.1673" stroke="white" stroke-width="6.4385" stroke-linecap="square"/>
<path d="M103.475 34.0389C105.585 34.5142 110.464 36.6051 113.098 41.1673" stroke="white" stroke-width="6.4385" stroke-linecap="square"/>
</svg>
