<svg width="174" height="138" viewBox="0 0 174 138" fill="none" xmlns="http://www.w3.org/2000/svg">
<g filter="url(#filter0_dd_2338_73792)">
<rect x="23.3809" y="64.1454" width="86.5087" height="55.9599" transform="rotate(-24.2607 23.3809 64.1454)" fill="#9E9E9E"/>
<path d="M18.3037 52.8822L46.8372 40.0224L60.3474 47.489L23.3816 64.1492L18.3037 52.8822Z" fill="#9E9E9E"/>
<path d="M26.2715 57.338L47.1534 47.9267" stroke="#616161" stroke-width="4.38114"/>
<path d="M74.2095 82.5355C90.1539 80.2732 95.9604 90.7563 98.3513 107.607L67.9939 111.915C66.6514 102.453 61.1355 97.9037 51.226 99.9533L53.2206 114.011L24.3945 118.101L16.6719 63.673L45.4979 59.5829L47.2751 72.1086C56.643 71.4228 61.4348 65.687 60.2712 57.4868L90.6287 53.1794C92.9301 69.3997 88.6109 79.1132 74.0177 81.1838L74.2095 82.5355Z" fill="white"/>
<path d="M130.435 85.6923C130.435 81.4833 133.847 78.0712 138.056 78.0712C142.265 78.0712 145.677 81.4833 145.677 85.6923C145.677 89.9013 142.265 93.3134 138.056 93.3134C133.847 93.3134 130.435 89.9013 130.435 85.6923Z" fill="#9E9E9E"/>
<path d="M138.056 78.0712L138.302 77.4237L137.363 77.0663L137.363 78.0712L138.056 78.0712ZM138.149 78.1068L137.903 78.7543L137.91 78.7569L137.917 78.7594L138.149 78.1068ZM138.911 78.3784L138.679 79.031L138.888 79.1055L139.101 79.0447L138.911 78.3784ZM139.853 78.1101L140.125 77.4727L139.899 77.3766L139.663 77.4438L139.853 78.1101ZM140.686 78.4651L141.231 78.037L141.121 77.8973L140.958 77.8277L140.686 78.4651ZM141.296 79.2406L140.751 79.6687L141.054 80.0544L141.518 79.8967L141.296 79.2406ZM142.589 78.8015L143.277 78.8792L143.399 77.7944L142.366 78.1455L142.589 78.8015ZM142.394 80.5209L141.706 80.4432L141.601 81.3695L142.519 81.2026L142.394 80.5209ZM143.81 80.2632L144.058 79.6161L143.877 79.5469L143.686 79.5816L143.81 80.2632ZM144.826 80.6516L145.445 80.3406L145.324 80.1005L145.074 80.0045L144.826 80.6516ZM145.267 81.5286L145.944 81.6729L145.995 81.435L145.886 81.2175L145.267 81.5286ZM145.02 82.6887L144.342 82.5443L144.342 82.5458L145.02 82.6887ZM144.813 83.6692L144.135 83.5262L144.055 83.9032L144.334 84.1696L144.813 83.6692ZM145.546 84.3713L146.204 84.1525L146.149 83.9896L146.025 83.8709L145.546 84.3713ZM145.835 85.2394L146.528 85.2511L146.53 85.1328L146.493 85.0206L145.835 85.2394ZM145.82 86.1451L145.127 86.1334L145.127 86.1724L145.13 86.2112L145.82 86.1451ZM145.909 87.0777L146.225 87.6945L146.644 87.4801L146.599 87.0115L145.909 87.0777ZM144.717 87.6876L144.402 87.0708L143.744 87.4071L144.122 88.0418L144.717 87.6876ZM145.421 88.8701L145.948 89.3198L146.27 88.9423L146.016 88.5158L145.421 88.8701ZM144.806 89.5905L144.975 90.2626L145.19 90.2087L145.333 90.0402L144.806 89.5905ZM143.673 89.8744L143.505 89.2023L142.982 89.3332L142.98 89.8718L143.673 89.8744ZM143.669 90.9892L143.984 91.6062L144.36 91.4141L144.362 90.9917L143.669 90.9892ZM142.85 91.4074L142.535 90.7904L142.255 90.9335L142.178 91.2387L142.85 91.4074ZM142.564 92.5474L142.727 93.2208L143.134 93.1225L143.236 92.7161L142.564 92.5474ZM141.613 92.777L141.729 93.4601L141.753 93.4561L141.776 93.4505L141.613 92.777ZM140.69 92.9333L140.365 93.5447L140.573 93.6559L140.806 93.6164L140.69 92.9333ZM139.639 92.373L139.965 91.7616L139.521 91.5246L139.158 91.8745L139.639 92.373ZM138.918 93.0694L138.998 93.7576L139.231 93.7304L139.399 93.5679L138.918 93.0694ZM138.055 93.1701L137.975 92.482L137.967 92.4829L138.055 93.1701ZM137.167 93.2835L136.649 93.7438L136.892 94.0171L137.255 93.9708L137.167 93.2835ZM136.447 92.4732L136.965 92.0129L136.846 91.8797L136.678 91.8202L136.447 92.4732ZM135.685 92.2031L135.917 91.5501L135.698 91.4724L135.476 91.5425L135.685 92.2031ZM134.615 92.5418L134.5 93.2251L134.664 93.2528L134.824 93.2024L134.615 92.5418ZM133.655 92.3804L133.512 93.0582L133.526 93.0612L133.54 93.0636L133.655 92.3804ZM132.625 92.1619L132.021 92.5017L132.175 92.7747L132.481 92.8397L132.625 92.1619ZM132.13 91.2817L131.491 91.5508L131.507 91.5871L131.526 91.6215L132.13 91.2817ZM131.752 90.3843L131.059 90.3723L131.056 90.5185L131.113 90.6533L131.752 90.3843ZM131.77 89.3197L132.463 89.3317L132.465 89.2027L132.421 89.0816L131.77 89.3197ZM131.48 88.5274L132.131 88.2893L132.091 88.1821L132.02 88.0932L131.48 88.5274ZM130.918 87.8284L130.313 88.167L130.342 88.2175L130.378 88.2626L130.918 87.8284ZM130.47 87.0291L129.82 86.7903L129.71 87.0895L129.866 87.3677L130.47 87.0291ZM130.806 86.114L131.456 86.3528L131.632 85.8737L131.227 85.5637L130.806 86.114ZM129.61 85.1995L128.963 84.9519L128.778 85.4354L129.189 85.7499L129.61 85.1995ZM129.968 84.2651L129.635 83.6573L129.412 83.7796L129.321 84.0175L129.968 84.2651ZM131.144 83.6215L131.477 84.2293L132.055 83.9128L131.768 83.3195L131.144 83.6215ZM130.585 82.4682L130.5 81.7807L129.54 81.8998L129.962 82.7703L130.585 82.4682ZM132.138 82.2755L132.224 82.963L133.144 82.8487L132.773 81.9984L132.138 82.2755ZM131.498 80.8082L130.916 80.4328L130.715 80.7449L130.863 81.0853L131.498 80.8082ZM132.021 79.9967L132.147 79.3154L131.69 79.2312L131.439 79.6214L132.021 79.9967ZM133.509 80.2711L133.383 80.9524L134.01 81.0679L134.177 80.4532L133.509 80.2711ZM133.797 79.2144L133.718 78.526L133.252 78.5791L133.128 79.0322L133.797 79.2144ZM134.75 79.1058L134.828 79.7942L135.107 79.7624L135.285 79.5451L134.75 79.1058ZM135.38 78.3368L135.448 77.6473L135.079 77.6113L134.844 77.8976L135.38 78.3368ZM136.336 78.4303L136.268 79.1199L136.491 79.1417L136.684 79.0289L136.336 78.4303ZM137.153 77.9541L137.629 77.4512L137.252 77.0941L136.804 77.3555L137.153 77.9541ZM138.056 78.8098L137.579 79.3127L138.748 80.4206L138.748 78.8098L138.056 78.8098ZM138.056 78.0712L137.809 78.7187L137.903 78.7543L138.149 78.1068L138.396 77.4592L138.302 77.4237L138.056 78.0712ZM138.149 78.1068L137.917 78.7594L138.679 79.031L138.911 78.3784L139.144 77.7258L138.382 77.4541L138.149 78.1068ZM138.911 78.3784L139.101 79.0447L140.043 78.7764L139.853 78.1101L139.663 77.4438L138.722 77.7121L138.911 78.3784ZM139.853 78.1101L139.581 78.7475L140.415 79.1025L140.686 78.4651L140.958 77.8277L140.125 77.4727L139.853 78.1101ZM140.686 78.4651L140.141 78.8931L140.751 79.6687L141.296 79.2406L141.84 78.8126L141.231 78.037L140.686 78.4651ZM141.296 79.2406L141.518 79.8967L142.811 79.4575L142.589 78.8015L142.366 78.1455L141.073 78.5846L141.296 79.2406ZM142.589 78.8015L141.9 78.7238L141.706 80.4432L142.394 80.5209L143.083 80.5986L143.277 78.8792L142.589 78.8015ZM142.394 80.5209L142.519 81.2026L143.934 80.9448L143.81 80.2632L143.686 79.5816L142.27 79.8393L142.394 80.5209ZM143.81 80.2632L143.563 80.9103L144.579 81.2987L144.826 80.6516L145.074 80.0045L144.058 79.6161L143.81 80.2632ZM144.826 80.6516L144.207 80.9627L144.648 81.8397L145.267 81.5286L145.886 81.2175L145.445 80.3406L144.826 80.6516ZM145.267 81.5286L144.589 81.3843L144.342 82.5443L145.02 82.6887L145.697 82.833L145.944 81.6729L145.267 81.5286ZM145.02 82.6887L144.342 82.5458L144.135 83.5262L144.813 83.6692L145.491 83.8121L145.698 82.8316L145.02 82.6887ZM144.813 83.6692L144.334 84.1696L145.067 84.8718L145.546 84.3713L146.025 83.8709L145.292 83.1687L144.813 83.6692ZM145.546 84.3713L144.889 84.5902L145.178 85.4582L145.835 85.2394L146.493 85.0206L146.204 84.1525L145.546 84.3713ZM145.835 85.2394L145.143 85.2277L145.127 86.1334L145.82 86.1451L146.513 86.1568L146.528 85.2511L145.835 85.2394ZM145.82 86.1451L145.13 86.2112L145.22 87.1438L145.909 87.0777L146.599 87.0115L146.51 86.0789L145.82 86.1451ZM145.909 87.0777L145.594 86.4609L144.402 87.0708L144.717 87.6876L145.033 88.3044L146.225 87.6945L145.909 87.0777ZM144.717 87.6876L144.122 88.0418L144.825 89.2244L145.421 88.8701L146.016 88.5158L145.313 87.3333L144.717 87.6876ZM145.421 88.8701L144.894 88.4205L144.279 89.1409L144.806 89.5905L145.333 90.0402L145.948 89.3198L145.421 88.8701ZM144.806 89.5905L144.638 88.9185L143.505 89.2023L143.673 89.8744L143.842 90.5464L144.975 90.2626L144.806 89.5905ZM143.673 89.8744L142.98 89.8718L142.976 90.9866L143.669 90.9892L144.362 90.9917L144.366 89.8769L143.673 89.8744ZM143.669 90.9892L143.354 90.3721L142.535 90.7904L142.85 91.4074L143.165 92.0244L143.984 91.6062L143.669 90.9892ZM142.85 91.4074L142.178 91.2387L141.892 92.3787L142.564 92.5474L143.236 92.7161L143.522 91.5761L142.85 91.4074ZM142.564 92.5474L142.401 91.8739L141.451 92.1035L141.613 92.777L141.776 93.4505L142.727 93.2208L142.564 92.5474ZM141.613 92.777L141.498 92.0939L140.575 92.2502L140.69 92.9333L140.806 93.6164L141.729 93.4601L141.613 92.777ZM140.69 92.9333L141.016 92.3219L139.965 91.7616L139.639 92.373L139.313 92.9843L140.365 93.5447L140.69 92.9333ZM139.639 92.373L139.158 91.8745L138.437 92.5709L138.918 93.0694L139.399 93.5679L140.121 92.8714L139.639 92.373ZM138.918 93.0694L138.838 92.3812L137.975 92.482L138.055 93.1701L138.135 93.8583L138.998 93.7576L138.918 93.0694ZM138.055 93.1701L137.967 92.4829L137.079 92.5963L137.167 93.2835L137.255 93.9708L138.143 93.8574L138.055 93.1701ZM137.167 93.2835L137.685 92.8232L136.965 92.0129L136.447 92.4732L135.929 92.9335L136.649 93.7438L137.167 93.2835ZM136.447 92.4732L136.678 91.8202L135.917 91.5501L135.685 92.2031L135.454 92.8561L136.215 93.1262L136.447 92.4732ZM135.685 92.2031L135.476 91.5425L134.406 91.8813L134.615 92.5418L134.824 93.2024L135.894 92.8636L135.685 92.2031ZM134.615 92.5418L134.73 91.8586L133.77 91.6972L133.655 92.3804L133.54 93.0636L134.5 93.2251L134.615 92.5418ZM133.655 92.3804L133.799 91.7026L132.769 91.4842L132.625 92.1619L132.481 92.8397L133.512 93.0582L133.655 92.3804ZM132.625 92.1619L133.229 91.8222L132.734 90.9419L132.13 91.2817L131.526 91.6215L132.021 92.5017L132.625 92.1619ZM132.13 91.2817L132.768 91.0126L132.39 90.1152L131.752 90.3843L131.113 90.6533L131.491 91.5508L132.13 91.2817ZM131.752 90.3843L132.444 90.3963L132.463 89.3317L131.77 89.3197L131.077 89.3077L131.059 90.3723L131.752 90.3843ZM131.77 89.3197L132.421 89.0816L132.131 88.2893L131.48 88.5274L130.829 88.7655L131.119 89.5579L131.77 89.3197ZM131.48 88.5274L132.02 88.0932L131.458 87.3942L130.918 87.8284L130.378 88.2626L130.94 88.9616L131.48 88.5274ZM130.918 87.8284L131.522 87.4898L131.075 86.6905L130.47 87.0291L129.866 87.3677L130.313 88.167L130.918 87.8284ZM130.47 87.0291L131.121 87.2678L131.456 86.3528L130.806 86.114L130.156 85.8753L129.82 86.7903L130.47 87.0291ZM130.806 86.114L131.227 85.5637L130.031 84.6492L129.61 85.1995L129.189 85.7499L130.385 86.6644L130.806 86.114ZM129.61 85.1995L130.257 85.4472L130.615 84.5127L129.968 84.2651L129.321 84.0175L128.963 84.9519L129.61 85.1995ZM129.968 84.2651L130.301 84.8729L131.477 84.2293L131.144 83.6215L130.812 83.0137L129.635 83.6573L129.968 84.2651ZM131.144 83.6215L131.768 83.3195L131.209 82.1661L130.585 82.4682L129.962 82.7703L130.521 83.9236L131.144 83.6215ZM130.585 82.4682L130.671 83.1558L132.224 82.963L132.138 82.2755L132.053 81.5879L130.5 81.7807L130.585 82.4682ZM132.138 82.2755L132.773 81.9984L132.133 80.5311L131.498 80.8082L130.863 81.0853L131.503 82.5526L132.138 82.2755ZM131.498 80.8082L132.08 81.1835L132.603 80.3721L132.021 79.9967L131.439 79.6214L130.916 80.4328L131.498 80.8082ZM132.021 79.9967L131.895 80.6781L133.383 80.9524L133.509 80.2711L133.634 79.5897L132.147 79.3154L132.021 79.9967ZM133.509 80.2711L134.177 80.4532L134.465 79.3965L133.797 79.2144L133.128 79.0322L132.84 80.0889L133.509 80.2711ZM133.797 79.2144L133.875 79.9027L134.828 79.7942L134.75 79.1058L134.671 78.4175L133.718 78.526L133.797 79.2144ZM134.75 79.1058L135.285 79.5451L135.916 78.7761L135.38 78.3368L134.844 77.8976L134.214 78.6666L134.75 79.1058ZM135.38 78.3368L135.313 79.0264L136.268 79.1199L136.336 78.4303L136.403 77.7408L135.448 77.6473L135.38 78.3368ZM136.336 78.4303L136.684 79.0289L137.501 78.5527L137.153 77.9541L136.804 77.3555L135.987 77.8317L136.336 78.4303ZM137.153 77.9541L136.676 78.4571L137.579 79.3127L138.056 78.8098L138.532 78.3068L137.629 77.4512L137.153 77.9541ZM138.056 78.8098L138.748 78.8098L138.748 78.0712L138.056 78.0712L137.363 78.0712L137.363 78.8098L138.056 78.8098Z" fill="#9E9E9E"/>
<path d="M143.072 64.0202C143.072 58.5157 147.535 54.0534 153.039 54.0534C158.544 54.0534 163.006 58.5157 163.006 64.0202C163.006 69.5247 158.544 73.987 153.039 73.987C147.535 73.987 143.072 69.5247 143.072 64.0202Z" fill="#9E9E9E"/>
<path d="M153.039 54.0534L153.361 53.2065L152.133 52.7391L152.133 54.0534L153.039 54.0534ZM153.133 54.0889L152.81 54.9358L152.819 54.9391L152.828 54.9423L153.133 54.0889ZM154.158 54.4551L153.853 55.3084L154.127 55.4061L154.406 55.3265L154.158 54.4551ZM155.39 54.1043L155.745 53.2707L155.45 53.145L155.141 53.2329L155.39 54.1043ZM156.479 54.5685L157.192 54.0087L157.048 53.826L156.834 53.7349L156.479 54.5685ZM157.276 55.5828L156.564 56.1425L156.96 56.647L157.568 56.4407L157.276 55.5828ZM158.967 55.0085L159.868 55.1101L160.028 53.6914L158.676 54.1505L158.967 55.0085ZM158.713 57.2571L157.813 57.1555L157.676 58.3668L158.876 58.1485L158.713 57.2571ZM160.565 56.9201L160.889 56.0738L160.652 55.9833L160.403 56.0286L160.565 56.9201ZM161.893 57.428L162.703 57.0212L162.545 56.7072L162.217 56.5817L161.893 57.428ZM162.47 58.5749L163.356 58.7637L163.422 58.4525L163.279 58.1681L162.47 58.5749ZM162.146 60.0921L161.26 59.9033L161.26 59.9052L162.146 60.0921ZM161.876 61.3743L160.99 61.1874L160.886 61.6804L161.25 62.0288L161.876 61.3743ZM162.835 62.2926L163.695 62.0065L163.624 61.7934L163.462 61.6381L162.835 62.2926ZM163.213 63.4279L164.119 63.4432L164.122 63.2885L164.073 63.1417L163.213 63.4279ZM163.193 64.6123L162.287 64.597L162.286 64.648L162.291 64.6988L163.193 64.6123ZM163.31 65.8319L163.723 66.6386L164.271 66.3582L164.212 65.7454L163.31 65.8319ZM161.751 66.6296L161.338 65.8229L160.478 66.2628L160.972 67.0929L161.751 66.6296ZM162.671 68.1761L163.361 68.7642L163.782 68.2705L163.45 67.7128L162.671 68.1761ZM161.867 69.1183L162.088 69.9972L162.369 69.9268L162.557 69.7063L161.867 69.1183ZM160.386 69.4894L160.166 68.6105L159.482 68.7817L159.48 69.4861L160.386 69.4894ZM160.38 70.9474L160.792 71.7543L161.284 71.5031L161.286 70.9507L160.38 70.9474ZM159.309 71.4943L158.897 70.6874L158.531 70.8746L158.431 71.2737L159.309 71.4943ZM158.935 72.9852L159.148 73.8659L159.68 73.7373L159.814 73.2058L158.935 72.9852ZM157.692 73.2855L157.843 74.1788L157.874 74.1736L157.904 74.1662L157.692 73.2855ZM156.485 73.4899L156.059 74.2894L156.331 74.4349L156.636 74.3832L156.485 73.4899ZM155.11 72.7571L155.536 71.9575L154.955 71.6476L154.481 72.1052L155.11 72.7571ZM154.167 73.6679L154.272 74.5679L154.576 74.5324L154.796 74.3198L154.167 73.6679ZM153.038 73.7996L152.933 72.8996L152.923 72.9009L153.038 73.7996ZM151.877 73.9479L151.2 74.5499L151.518 74.9073L151.992 74.8467L151.877 73.9479ZM150.935 72.8881L151.612 72.2862L151.457 72.112L151.238 72.0342L150.935 72.8881ZM149.939 72.5349L150.242 71.681L149.955 71.5794L149.666 71.6711L149.939 72.5349ZM148.539 72.9779L148.389 73.8714L148.604 73.9077L148.812 73.8418L148.539 72.9779ZM147.284 72.7668L147.096 73.6532L147.115 73.6571L147.134 73.6603L147.284 72.7668ZM145.937 72.4811L145.147 72.9255L145.348 73.2825L145.749 73.3675L145.937 72.4811ZM145.289 71.33L144.454 71.6818L144.474 71.7294L144.5 71.7743L145.289 71.33ZM144.795 70.1563L143.889 70.1406L143.885 70.3319L143.96 70.5082L144.795 70.1563ZM144.819 68.7641L145.725 68.7798L145.728 68.6111L145.67 68.4527L144.819 68.7641ZM144.44 67.7279L145.29 67.4165L145.239 67.2764L145.146 67.1601L144.44 67.7279ZM143.704 66.8137L142.914 67.2566L142.951 67.3226L142.998 67.3816L143.704 66.8137ZM143.119 65.7684L142.268 65.4561L142.125 65.8475L142.328 66.2112L143.119 65.7684ZM143.558 64.5717L144.409 64.884L144.639 64.2575L144.109 63.852L143.558 64.5717ZM141.994 63.3758L141.148 63.0519L140.906 63.6842L141.444 64.0955L141.994 63.3758ZM142.462 62.1537L142.027 61.3588L141.735 61.5187L141.616 61.8299L142.462 62.1537ZM144 61.3121L144.435 62.1069L145.192 61.693L144.816 60.917L144 61.3121ZM143.27 59.8037L143.158 58.9046L141.903 59.0604L142.454 60.1988L143.27 59.8037ZM145.3 59.5517L145.412 60.4508L146.616 60.3014L146.131 59.1893L145.3 59.5517ZM144.463 57.6328L143.701 57.1419L143.438 57.5501L143.633 57.9951L144.463 57.6328ZM145.147 56.5716L145.311 55.6805L144.714 55.5704L144.385 56.0807L145.147 56.5716ZM147.093 56.9303L146.928 57.8214L147.748 57.9725L147.967 57.1685L147.093 56.9303ZM147.469 55.5484L147.367 54.6482L146.757 54.7177L146.595 55.3102L147.469 55.5484ZM148.715 55.4065L148.818 56.3067L149.183 56.2651L149.416 55.9809L148.715 55.4065ZM149.54 54.4008L149.628 53.499L149.146 53.4519L148.839 53.8263L149.54 54.4008ZM150.789 54.523L150.701 55.4248L150.993 55.4533L151.246 55.3058L150.789 54.523ZM151.858 53.9003L152.481 53.2425L151.988 52.7756L151.402 53.1175L151.858 53.9003ZM153.039 55.0193L152.416 55.677L153.945 57.1258L153.945 55.0193L153.039 55.0193ZM153.039 54.0534L152.717 54.9002L152.81 54.9358L153.133 54.0889L153.455 53.2421L153.361 53.2065L153.039 54.0534ZM153.133 54.0889L152.828 54.9423L153.853 55.3084L154.158 54.4551L154.463 53.6018L153.437 53.2356L153.133 54.0889ZM154.158 54.4551L154.406 55.3265L155.638 54.9757L155.39 54.1043L155.141 53.2329L153.91 53.5837L154.158 54.4551ZM155.39 54.1043L155.035 54.9379L156.124 55.4021L156.479 54.5685L156.834 53.7349L155.745 53.2707L155.39 54.1043ZM156.479 54.5685L155.767 55.1282L156.564 56.1425L157.276 55.5828L157.989 55.023L157.192 54.0087L156.479 54.5685ZM157.276 55.5828L157.568 56.4407L159.259 55.8664L158.967 55.0085L158.676 54.1505L156.985 54.7248L157.276 55.5828ZM158.967 55.0085L158.067 54.9069L157.813 57.1555L158.713 57.2571L159.614 57.3587L159.868 55.1101L158.967 55.0085ZM158.713 57.2571L158.876 58.1485L160.727 57.8115L160.565 56.9201L160.403 56.0286L158.551 56.3657L158.713 57.2571ZM160.565 56.9201L160.241 57.7664L161.57 58.2743L161.893 57.428L162.217 56.5817L160.889 56.0738L160.565 56.9201ZM161.893 57.428L161.084 57.8348L161.66 58.9817L162.47 58.5749L163.279 58.1681L162.703 57.0212L161.893 57.428ZM162.47 58.5749L161.583 58.3862L161.26 59.9033L162.146 60.0921L163.033 60.2808L163.356 58.7637L162.47 58.5749ZM162.146 60.0921L161.26 59.9052L160.99 61.1874L161.876 61.3743L162.763 61.5612L163.033 60.279L162.146 60.0921ZM161.876 61.3743L161.25 62.0288L162.209 62.9471L162.835 62.2926L163.462 61.6381L162.503 60.7198L161.876 61.3743ZM162.835 62.2926L161.976 62.5788L162.354 63.7141L163.213 63.4279L164.073 63.1417L163.695 62.0065L162.835 62.2926ZM163.213 63.4279L162.307 63.4126L162.287 64.597L163.193 64.6123L164.099 64.6276L164.119 63.4432L163.213 63.4279ZM163.193 64.6123L162.291 64.6988L162.408 65.9184L163.31 65.8319L164.212 65.7454L164.095 64.5258L163.193 64.6123ZM163.31 65.8319L162.897 65.0253L161.338 65.8229L161.751 66.6296L162.164 67.4362L163.723 66.6386L163.31 65.8319ZM161.751 66.6296L160.972 67.0929L161.893 68.6394L162.671 68.1761L163.45 67.7128L162.53 66.1663L161.751 66.6296ZM162.671 68.1761L161.982 67.5881L161.178 68.5302L161.867 69.1183L162.557 69.7063L163.361 68.7642L162.671 68.1761ZM161.867 69.1183L161.647 68.2393L160.166 68.6105L160.386 69.4894L160.606 70.3684L162.088 69.9972L161.867 69.1183ZM160.386 69.4894L159.48 69.4861L159.474 70.944L160.38 70.9474L161.286 70.9507L161.292 69.4928L160.386 69.4894ZM160.38 70.9474L159.968 70.1404L158.897 70.6874L159.309 71.4943L159.721 72.3013L160.792 71.7543L160.38 70.9474ZM159.309 71.4943L158.431 71.2737L158.056 72.7645L158.935 72.9852L159.814 73.2058L160.188 71.715L159.309 71.4943ZM158.935 72.9852L158.722 72.1044L157.479 72.4047L157.692 73.2855L157.904 74.1662L159.148 73.8659L158.935 72.9852ZM157.692 73.2855L157.54 72.3921L156.334 72.5965L156.485 73.4899L156.636 74.3832L157.843 74.1788L157.692 73.2855ZM156.485 73.4899L156.911 72.6903L155.536 71.9575L155.11 72.7571L154.684 73.5566L156.059 74.2894L156.485 73.4899ZM155.11 72.7571L154.481 72.1052L153.537 73.016L154.167 73.6679L154.796 74.3198L155.739 73.409L155.11 72.7571ZM154.167 73.6679L154.062 72.7679L152.933 72.8997L153.038 73.7996L153.143 74.6996L154.272 74.5679L154.167 73.6679ZM153.038 73.7996L152.923 72.9009L151.762 73.0491L151.877 73.9479L151.992 74.8467L153.153 74.6984L153.038 73.7996ZM151.877 73.9479L152.554 73.346L151.612 72.2862L150.935 72.8881L150.258 73.4901L151.2 74.5499L151.877 73.9479ZM150.935 72.8881L151.238 72.0342L150.242 71.681L149.939 72.5349L149.636 73.3889L150.632 73.7421L150.935 72.8881ZM149.939 72.5349L149.666 71.6711L148.266 72.1141L148.539 72.9779L148.812 73.8418L150.212 73.3988L149.939 72.5349ZM148.539 72.9779L148.689 72.0844L147.435 71.8733L147.284 72.7668L147.134 73.6603L148.389 73.8714L148.539 72.9779ZM147.284 72.7668L147.472 71.8805L146.125 71.5947L145.937 72.4811L145.749 73.3675L147.096 73.6532L147.284 72.7668ZM145.937 72.4811L146.727 72.0367L146.079 70.8856L145.289 71.33L144.5 71.7743L145.147 72.9255L145.937 72.4811ZM145.289 71.33L146.124 70.9781L145.63 69.8044L144.795 70.1563L143.96 70.5082L144.454 71.6818L145.289 71.33ZM144.795 70.1563L145.701 70.172L145.725 68.7798L144.819 68.7641L143.913 68.7484L143.889 70.1406L144.795 70.1563ZM144.819 68.7641L145.67 68.4527L145.29 67.4165L144.44 67.7279L143.589 68.0393L143.968 69.0755L144.819 68.7641ZM144.44 67.7279L145.146 67.1601L144.41 66.2459L143.704 66.8137L142.998 67.3816L143.733 68.2957L144.44 67.7279ZM143.704 66.8137L144.495 66.3709L143.909 65.3256L143.119 65.7684L142.328 66.2112L142.914 67.2566L143.704 66.8137ZM143.119 65.7684L143.969 66.0807L144.409 64.884L143.558 64.5717L142.708 64.2595L142.268 65.4561L143.119 65.7684ZM143.558 64.5717L144.109 63.852L142.545 62.656L141.994 63.3758L141.444 64.0955L143.008 65.2914L143.558 64.5717ZM141.994 63.3758L142.841 63.6996L143.308 62.4775L142.462 62.1537L141.616 61.8299L141.148 63.0519L141.994 63.3758ZM142.462 62.1537L142.897 62.9486L144.435 62.1069L144 61.3121L143.565 60.5172L142.027 61.3588L142.462 62.1537ZM144 61.3121L144.816 60.917L144.085 59.4087L143.27 59.8037L142.454 60.1988L143.185 61.7071L144 61.3121ZM143.27 59.8037L143.381 60.7029L145.412 60.4508L145.3 59.5517L145.189 58.6525L143.158 58.9046L143.27 59.8037ZM145.3 59.5517L146.131 59.1893L145.293 57.2704L144.463 57.6328L143.633 57.9951L144.47 59.9141L145.3 59.5517ZM144.463 57.6328L145.225 58.1236L145.909 57.0624L145.147 56.5716L144.385 56.0807L143.701 57.1419L144.463 57.6328ZM145.147 56.5716L144.983 57.4626L146.928 57.8214L147.093 56.9303L147.257 56.0393L145.311 55.6805L145.147 56.5716ZM147.093 56.9303L147.967 57.1685L148.343 55.7866L147.469 55.5484L146.595 55.3102L146.219 56.6922L147.093 56.9303ZM147.469 55.5484L147.572 56.4487L148.818 56.3067L148.715 55.4065L148.613 54.5062L147.367 54.6482L147.469 55.5484ZM148.715 55.4065L149.416 55.9809L150.241 54.9753L149.54 54.4008L148.839 53.8263L148.015 54.832L148.715 55.4065ZM149.54 54.4008L149.452 55.3026L150.701 55.4248L150.789 54.523L150.878 53.6213L149.628 53.499L149.54 54.4008ZM150.789 54.523L151.246 55.3058L152.314 54.6831L151.858 53.9003L151.402 53.1175L150.333 53.7402L150.789 54.523ZM151.858 53.9003L151.235 54.558L152.416 55.677L153.039 55.0193L153.662 54.3615L152.481 53.2425L151.858 53.9003ZM153.039 55.0193L153.945 55.0193L153.945 54.0534L153.039 54.0534L152.133 54.0534L152.133 55.0193L153.039 55.0193Z" fill="#9E9E9E"/>
<path d="M127.736 69.8498C127.736 67.6822 129.494 65.925 131.661 65.925C133.829 65.925 135.586 67.6822 135.586 69.8498C135.586 72.0174 133.829 73.7746 131.661 73.7746C129.494 73.7746 127.736 72.0174 127.736 69.8498Z" fill="#9E9E9E"/>
<path d="M131.661 65.925L131.788 65.5915L131.304 65.4074L131.304 65.925L131.661 65.925ZM131.755 65.9605L131.628 66.2941L131.636 66.297L131.755 65.9605ZM132.102 66.0832L131.983 66.4196L132.09 66.4575L132.2 66.4263L132.102 66.0832ZM132.587 65.945L132.727 65.6167L132.61 65.5673L132.489 65.6019L132.587 65.945ZM133.016 66.1278L133.296 65.9074L133.24 65.8354L133.156 65.7995L133.016 66.1278ZM133.33 66.5272L133.049 66.7476L133.205 66.9463L133.444 66.8651L133.33 66.5272ZM133.996 66.3011L134.35 66.3411L134.413 65.7824L133.881 65.9632L133.996 66.3011ZM133.896 67.1865L133.541 67.1465L133.487 67.6235L133.959 67.5376L133.896 67.1865ZM134.625 67.0538L134.752 66.7206L134.659 66.6849L134.561 66.7028L134.625 67.0538ZM135.148 67.2539L135.467 67.0937L135.405 66.97L135.275 66.9206L135.148 67.2539ZM135.375 67.7055L135.724 67.7798L135.75 67.6573L135.694 67.5453L135.375 67.7055ZM135.247 68.3029L134.899 68.2286L134.898 68.2293L135.247 68.3029ZM135.141 68.8079L134.792 68.7343L134.751 68.9284L134.894 69.0656L135.141 68.8079ZM135.519 69.1695L135.857 69.0568L135.829 68.9729L135.766 68.9117L135.519 69.1695ZM135.668 69.6165L136.024 69.6226L136.025 69.5616L136.006 69.5038L135.668 69.6165ZM135.66 70.0829L135.303 70.0769L135.303 70.097L135.305 70.117L135.66 70.0829ZM135.706 70.5632L135.868 70.8809L136.084 70.7705L136.061 70.5292L135.706 70.5632ZM135.092 70.8773L134.929 70.5597L134.591 70.7329L134.785 71.0598L135.092 70.8773ZM135.454 71.4863L135.726 71.7179L135.891 71.5235L135.761 71.3039L135.454 71.4863ZM135.138 71.8573L135.224 72.2034L135.335 72.1757L135.409 72.0889L135.138 71.8573ZM134.554 72.0035L134.467 71.6574L134.198 71.7248L134.197 72.0022L134.554 72.0035ZM134.552 72.5776L134.714 72.8954L134.908 72.7964L134.909 72.5789L134.552 72.5776ZM134.13 72.793L133.968 72.4752L133.824 72.5489L133.784 72.7061L134.13 72.793ZM133.983 73.3801L134.067 73.7269L134.276 73.6762L134.329 73.4669L133.983 73.3801ZM133.493 73.4983L133.553 73.8501L133.565 73.8481L133.577 73.8452L133.493 73.4983ZM133.018 73.5788L132.85 73.8937L132.958 73.9509L133.078 73.9306L133.018 73.5788ZM132.477 73.2903L132.645 72.9754L132.416 72.8533L132.229 73.0335L132.477 73.2903ZM132.105 73.6489L132.147 74.0033L132.266 73.9893L132.353 73.9056L132.105 73.6489ZM131.661 73.7008L131.619 73.3464L131.616 73.3469L131.661 73.7008ZM131.204 73.7592L130.937 73.9962L131.062 74.137L131.249 74.1131L131.204 73.7592ZM130.833 73.3419L131.099 73.1048L131.038 73.0362L130.952 73.0056L130.833 73.3419ZM130.44 73.2028L130.56 72.8665L130.447 72.8265L130.333 72.8626L130.44 73.2028ZM129.889 73.3772L129.83 73.7291L129.915 73.7434L129.997 73.7174L129.889 73.3772ZM129.395 73.2941L129.321 73.6431L129.328 73.6447L129.336 73.6459L129.395 73.2941ZM128.864 73.1816L128.554 73.3566L128.633 73.4972L128.79 73.5306L128.864 73.1816ZM128.609 72.7283L128.281 72.8668L128.288 72.8856L128.298 72.9033L128.609 72.7283ZM128.415 72.2661L128.058 72.2599L128.057 72.3352L128.086 72.4047L128.415 72.2661ZM128.424 71.7179L128.781 71.724L128.782 71.6576L128.759 71.5952L128.424 71.7179ZM128.275 71.3098L128.61 71.1872L128.59 71.132L128.553 71.0862L128.275 71.3098ZM127.985 70.9498L127.674 71.1242L127.689 71.1502L127.707 71.1734L127.985 70.9498ZM127.755 70.5382L127.42 70.4152L127.363 70.5693L127.443 70.7126L127.755 70.5382ZM127.928 70.067L128.263 70.1899L128.353 69.9432L128.144 69.7835L127.928 70.067ZM127.312 69.596L126.979 69.4685L126.883 69.7175L127.095 69.8794L127.312 69.596ZM127.496 69.1148L127.325 68.8018L127.21 68.8647L127.163 68.9872L127.496 69.1148ZM128.102 68.7833L128.273 69.0964L128.571 68.9334L128.423 68.6278L128.102 68.7833ZM127.814 68.1894L127.77 67.8353L127.276 67.8967L127.493 68.345L127.814 68.1894ZM128.614 68.0901L128.658 68.4442L129.132 68.3853L128.941 67.9474L128.614 68.0901ZM128.284 67.3345L127.984 67.1412L127.88 67.3019L127.957 67.4772L128.284 67.3345ZM128.553 66.9166L128.618 66.5657L128.383 66.5224L128.253 66.7233L128.553 66.9166ZM129.32 67.0579L129.255 67.4088L129.578 67.4683L129.664 67.1517L129.32 67.0579ZM129.468 66.5137L129.427 66.1592L129.187 66.1865L129.124 66.4199L129.468 66.5137ZM129.959 66.4578L129.999 66.8123L130.143 66.7959L130.234 66.684L129.959 66.4578ZM130.283 66.0618L130.318 65.7067L130.128 65.6881L130.007 65.8355L130.283 66.0618ZM130.775 66.1099L130.741 66.465L130.855 66.4762L130.955 66.4182L130.775 66.1099ZM131.196 65.8647L131.441 65.6056L131.247 65.4218L131.016 65.5564L131.196 65.8647ZM131.661 66.3053L131.416 66.5643L132.018 67.1348L132.018 66.3053L131.661 66.3053ZM131.661 65.925L131.534 66.2584L131.628 66.294L131.755 65.9605L131.881 65.627L131.788 65.5915L131.661 65.925ZM131.755 65.9605L131.636 66.297L131.983 66.4196L132.102 66.0832L132.221 65.7467L131.873 65.6241L131.755 65.9605ZM132.102 66.0832L132.2 66.4263L132.685 66.2881L132.587 65.945L132.489 65.6019L132.004 65.74L132.102 66.0832ZM132.587 65.945L132.447 66.2733L132.876 66.4561L133.016 66.1278L133.156 65.7995L132.727 65.6167L132.587 65.945ZM133.016 66.1278L132.735 66.3482L133.049 66.7476L133.33 66.5272L133.61 66.3068L133.296 65.9074L133.016 66.1278ZM133.33 66.5272L133.444 66.8651L134.11 66.6389L133.996 66.3011L133.881 65.9632L133.215 66.1894L133.33 66.5272ZM133.996 66.3011L133.641 66.261L133.541 67.1465L133.896 67.1865L134.25 67.2266L134.35 66.3411L133.996 66.3011ZM133.896 67.1865L133.959 67.5376L134.689 67.4049L134.625 67.0538L134.561 66.7028L133.832 66.8355L133.896 67.1865ZM134.625 67.0538L134.497 67.3871L135.02 67.5871L135.148 67.2539L135.275 66.9206L134.752 66.7206L134.625 67.0538ZM135.148 67.2539L134.829 67.414L135.056 67.8657L135.375 67.7055L135.694 67.5453L135.467 67.0937L135.148 67.2539ZM135.375 67.7055L135.026 67.6312L134.899 68.2286L135.247 68.3029L135.596 68.3773L135.724 67.7798L135.375 67.7055ZM135.247 68.3029L134.898 68.2293L134.792 68.7343L135.141 68.8079L135.49 68.8815L135.597 68.3765L135.247 68.3029ZM135.141 68.8079L134.894 69.0656L135.272 69.4272L135.519 69.1695L135.766 68.9117L135.388 68.5501L135.141 68.8079ZM135.519 69.1695L135.18 69.2822L135.329 69.7292L135.668 69.6165L136.006 69.5038L135.857 69.0568L135.519 69.1695ZM135.668 69.6165L135.311 69.6105L135.303 70.0769L135.66 70.0829L136.016 70.089L136.024 69.6226L135.668 69.6165ZM135.66 70.0829L135.305 70.117L135.351 70.5973L135.706 70.5632L136.061 70.5292L136.015 70.0489L135.66 70.0829ZM135.706 70.5632L135.543 70.2456L134.929 70.5597L135.092 70.8773L135.254 71.195L135.868 70.8809L135.706 70.5632ZM135.092 70.8773L134.785 71.0598L135.148 71.6688L135.454 71.4863L135.761 71.3039L135.398 70.6949L135.092 70.8773ZM135.454 71.4863L135.183 71.2547L134.866 71.6258L135.138 71.8573L135.409 72.0889L135.726 71.7179L135.454 71.4863ZM135.138 71.8573L135.051 71.5112L134.467 71.6574L134.554 72.0035L134.641 72.3496L135.224 72.2034L135.138 71.8573ZM134.554 72.0035L134.197 72.0022L134.195 72.5763L134.552 72.5776L134.909 72.5789L134.911 72.0048L134.554 72.0035ZM134.552 72.5776L134.39 72.2598L133.968 72.4752L134.13 72.793L134.293 73.1108L134.714 72.8954L134.552 72.5776ZM134.13 72.793L133.784 72.7061L133.637 73.2932L133.983 73.3801L134.329 73.4669L134.476 72.8799L134.13 72.793ZM133.983 73.3801L133.899 73.0332L133.41 73.1515L133.493 73.4983L133.577 73.8452L134.067 73.7269L133.983 73.3801ZM133.493 73.4983L133.434 73.1465L132.958 73.227L133.018 73.5788L133.078 73.9306L133.553 73.8501L133.493 73.4983ZM133.018 73.5788L133.186 73.264L132.645 72.9754L132.477 73.2903L132.309 73.6051L132.85 73.8937L133.018 73.5788ZM132.477 73.2903L132.229 73.0335L131.857 73.3922L132.105 73.6489L132.353 73.9056L132.725 73.547L132.477 73.2903ZM132.105 73.6489L132.064 73.2945L131.619 73.3464L131.661 73.7008L131.702 74.0552L132.147 74.0033L132.105 73.6489ZM131.661 73.7008L131.616 73.3469L131.158 73.4053L131.204 73.7592L131.249 74.1131L131.706 74.0547L131.661 73.7008ZM131.204 73.7592L131.47 73.5221L131.099 73.1048L130.833 73.3419L130.566 73.5789L130.937 73.9962L131.204 73.7592ZM130.833 73.3419L130.952 73.0056L130.56 72.8665L130.44 73.2028L130.321 73.5391L130.713 73.6781L130.833 73.3419ZM130.44 73.2028L130.333 72.8626L129.781 73.037L129.889 73.3772L129.997 73.7174L130.548 73.5429L130.44 73.2028ZM129.889 73.3772L129.948 73.0254L129.454 72.9422L129.395 73.2941L129.336 73.6459L129.83 73.7291L129.889 73.3772ZM129.395 73.2941L129.469 72.945L128.938 72.8325L128.864 73.1816L128.79 73.5306L129.321 73.6431L129.395 73.2941ZM128.864 73.1816L129.175 73.0066L128.92 72.5533L128.609 72.7283L128.298 72.9033L128.554 73.3566L128.864 73.1816ZM128.609 72.7283L128.938 72.5897L128.743 72.1275L128.415 72.2661L128.086 72.4047L128.281 72.8668L128.609 72.7283ZM128.415 72.2661L128.771 72.2723L128.781 71.724L128.424 71.7179L128.067 71.7117L128.058 72.2599L128.415 72.2661ZM128.424 71.7179L128.759 71.5952L128.61 71.1872L128.275 71.3098L127.94 71.4325L128.089 71.8405L128.424 71.7179ZM128.275 71.3098L128.553 71.0862L128.263 70.7262L127.985 70.9498L127.707 71.1734L127.997 71.5334L128.275 71.3098ZM127.985 70.9498L128.297 70.7755L128.066 70.3638L127.755 70.5382L127.443 70.7126L127.674 71.1242L127.985 70.9498ZM127.755 70.5382L128.09 70.6612L128.263 70.1899L127.928 70.067L127.593 69.944L127.42 70.4152L127.755 70.5382ZM127.928 70.067L128.144 69.7835L127.529 69.3126L127.312 69.596L127.095 69.8794L127.711 70.3504L127.928 70.067ZM127.312 69.596L127.645 69.7235L127.829 69.2423L127.496 69.1148L127.163 68.9872L126.979 69.4685L127.312 69.596ZM127.496 69.1148L127.667 69.4278L128.273 69.0964L128.102 68.7833L127.931 68.4703L127.325 68.8018L127.496 69.1148ZM128.102 68.7833L128.423 68.6278L128.135 68.0338L127.814 68.1894L127.493 68.345L127.781 68.9389L128.102 68.7833ZM127.814 68.1894L127.858 68.5435L128.658 68.4442L128.614 68.0901L128.57 67.736L127.77 67.8353L127.814 68.1894ZM128.614 68.0901L128.941 67.9474L128.611 67.1918L128.284 67.3345L127.957 67.4772L128.287 68.2328L128.614 68.0901ZM128.284 67.3345L128.584 67.5278L128.853 67.1099L128.553 66.9166L128.253 66.7233L127.984 67.1412L128.284 67.3345ZM128.553 66.9166L128.489 67.2675L129.255 67.4088L129.32 67.0579L129.384 66.707L128.618 66.5657L128.553 66.9166ZM129.32 67.0579L129.664 67.1517L129.812 66.6075L129.468 66.5137L129.124 66.4199L128.975 66.9641L129.32 67.0579ZM129.468 66.5137L129.508 66.8682L129.999 66.8123L129.959 66.4578L129.918 66.1033L129.427 66.1592L129.468 66.5137ZM129.959 66.4578L130.234 66.684L130.559 66.288L130.283 66.0618L130.007 65.8355L129.683 66.2316L129.959 66.4578ZM130.283 66.0618L130.248 66.4169L130.741 66.465L130.775 66.1099L130.81 65.7548L130.318 65.7067L130.283 66.0618ZM130.775 66.1099L130.955 66.4182L131.376 66.1729L131.196 65.8647L131.016 65.5564L130.596 65.8016L130.775 66.1099ZM131.196 65.8647L130.951 66.1237L131.416 66.5643L131.661 66.3053L131.907 66.0463L131.441 65.6056L131.196 65.8647ZM131.661 66.3053L132.018 66.3053L132.018 65.925L131.661 65.925L131.304 65.925L131.304 66.3053L131.661 66.3053Z" fill="#9E9E9E"/>
</g>
<defs>
<filter id="filter0_dd_2338_73792" x="13.6719" y="26.6" width="153.599" height="95.5007" filterUnits="userSpaceOnUse" color-interpolation-filters="sRGB">
<feFlood flood-opacity="0" result="BackgroundImageFix"/>
<feColorMatrix in="SourceAlpha" type="matrix" values="0 0 0 0 0 0 0 0 0 0 0 0 0 0 0 0 0 0 127 0" result="hardAlpha"/>
<feMorphology radius="1" operator="erode" in="SourceAlpha" result="effect1_dropShadow_2338_73792"/>
<feOffset dy="1"/>
<feGaussianBlur stdDeviation="1"/>
<feComposite in2="hardAlpha" operator="out"/>
<feColorMatrix type="matrix" values="0 0 0 0 0 0 0 0 0 0 0 0 0 0 0 0 0 0 0.1 0"/>
<feBlend mode="normal" in2="BackgroundImageFix" result="effect1_dropShadow_2338_73792"/>
<feColorMatrix in="SourceAlpha" type="matrix" values="0 0 0 0 0 0 0 0 0 0 0 0 0 0 0 0 0 0 127 0" result="hardAlpha"/>
<feOffset dy="1"/>
<feGaussianBlur stdDeviation="1.5"/>
<feComposite in2="hardAlpha" operator="out"/>
<feColorMatrix type="matrix" values="0 0 0 0 0 0 0 0 0 0 0 0 0 0 0 0 0 0 0.1 0"/>
<feBlend mode="normal" in2="effect1_dropShadow_2338_73792" result="effect2_dropShadow_2338_73792"/>
<feBlend mode="normal" in="SourceGraphic" in2="effect2_dropShadow_2338_73792" result="shape"/>
</filter>
</defs>
</svg>
