<svg width="82" height="82" viewBox="0 0 82 82" fill="none" xmlns="http://www.w3.org/2000/svg">
<rect x="13.2324" y="19.7686" width="66.1602" height="42.797" transform="rotate(-3.19776 13.2324 19.7686)" fill="#72E0CE"/>
<path d="M12.7051 10.3347L36.6035 8.99952L44.1933 18.0417L13.2323 19.7715L12.7051 10.3347Z" fill="#72E0CE"/>
<path d="M17.166 15.7087L34.6559 14.7316" stroke="#212121" stroke-width="2.80661"/>
<path d="M45.6486 50.8263C57.6497 53.5941 58.9123 62.6717 55.9871 75.3551L33.1376 70.0853C34.7801 62.9635 32.0939 58.2008 24.4583 56.9398L22.018 67.5207L0.321166 62.5167L9.76953 21.5498L31.4664 26.5538L29.292 35.9816C36.1661 38.0671 41.1625 35.2906 42.586 29.1184L65.4354 34.3883C62.6197 46.5969 56.8673 52.3422 45.8833 49.8089L45.6486 50.8263Z" fill="#212121"/>
</svg>
