<svg xmlns="http://www.w3.org/2000/svg" width="382" height="399" fill="none" viewBox="0 0 382 399"><g clip-path="url(#a)"><rect width="381.5" height="399" fill="#def7f4" rx="12"/><path fill="#424242" d="M225.187 158.315H422.85l-6.635 142.835H230.076z"/><path fill="#00d2ba" d="M219.86 204.066h207.792l-4.591 67.052H223.119z"/><path fill="#424242" d="M238.317 83.233h170.752l5.051 49.59H233.918z"/><path fill="#424242" d="M215.408 115.711h217.221v52.734H215.408z"/><circle cx="297.166" cy="132.794" r="11.178" fill="#fff"/><path fill="#fff" d="M259.424 146.041c0 13.299 10.781 24.08 24.08 24.08s24.079-10.781 24.079-24.08h14.425c0 21.265-17.239 38.504-38.504 38.504S245 167.306 245 146.041zm.626-20.81 20.612 5.523-2.893 10.797-20.612-5.523z"/><path stroke="#fff" stroke-linecap="square" stroke-width="9.473" d="M265.249 108.083c-3.105.699-10.283 3.776-14.159 10.488m50.642-10.488c3.104.699 10.283 3.776 14.159 10.488"/><g opacity=".5"><path fill="#aeece1" d="m227.935 19.3 44.126 12.26-7.93 28.544-44.127-12.26z"/><path fill="#aeece1" d="m229.683 13 15.964 4.436 2.966 7.614-20.682-5.747z"/><path stroke="#fff" stroke-width="1.035" d="m231.415 17.514 11.683 3.246"/></g><g opacity=".5"><path fill="#aeece1" d="M340.984 3.507 379.55 28.21l-15.98 24.946-38.564-24.703z"/><path fill="#aeece1" d="m344.509-2 13.952 8.937.594 8.15L340.98 3.51z"/><path stroke="#fff" stroke-width="1.035" d="m344.836 2.824 10.21 6.54"/></g><g fill="#aeece1" opacity=".5"><path d="m-4.697 269.144 44.756-9.714 6.284 28.95-44.756 9.715z"/><path d="m-6.086 262.755 16.191-3.514 6.173 5.355-20.977 4.553z"/></g><g opacity=".5"><path fill="#aeece1" d="m-6.526 79.729 44.623-10.307 6.667 28.865L.141 108.594z"/><path fill="#aeece1" d="m-8 73.359 16.144-3.73 6.243 5.273-20.915 4.831z"/><path stroke="#fff" stroke-width="1.035" d="m-4.323 76.497 11.815-2.73"/></g><g opacity=".5"><path fill="#aeece1" d="m93.258 22.083 39.335 23.456-15.173 25.445-39.335-23.456z"/><path fill="#aeece1" d="m96.604 16.465 14.231 8.486.855 8.127-18.437-10.994z"/><path stroke="#fff" stroke-width="1.035" d="m97.085 21.276 10.414 6.21"/></g><g opacity=".5"><path fill="#aeece1" d="m150.366 270.65 42.702-16.554 10.708 27.622-42.702 16.554z"/><path fill="#aeece1" d="m148 264.555 15.449-5.989 6.93 4.33-20.014 7.759z"/><path stroke="#fff" stroke-width="1.035" d="m152.087 267.138 11.306-4.383"/></g></g><defs><clipPath id="a"><rect width="381.5" height="399" fill="#fff" rx="12"/></clipPath></defs></svg>