<svg width="245" height="54" viewBox="0 0 245 54" fill="none" xmlns="http://www.w3.org/2000/svg">
<rect x="9.97266" y="10.3647" width="51.0959" height="33.0524" transform="rotate(-3.19776 9.97266 10.3647)" fill="white"/>
<path d="M9.56445 3.0791L28.0214 2.04792L33.883 9.03123L9.97163 10.3671L9.56445 3.0791Z" fill="white"/>
<path d="M13.0137 7.22949L26.5212 6.47483" stroke="#424242" stroke-width="2.16756"/>
<path d="M35.0065 34.3496C44.275 36.4873 45.2501 43.4979 42.9909 53.2934L25.3442 49.2235C26.6127 43.7233 24.5381 40.0451 18.6411 39.0712L16.7564 47.2428L-0.000150148 43.3782L7.29688 11.7393L24.0535 15.6039L22.3742 22.885C27.6831 24.4957 31.5418 22.3513 32.6412 17.5845L50.288 21.6545C48.1134 31.0833 43.6707 35.5204 35.1877 33.5639L35.0065 34.3496Z" fill="#424242"/>
<path d="M225.557 22.6235H244.407V47.8126H231.729V40.2642C231.729 38.2207 231.937 35.5517 233.272 33.3414H232.605C231.395 35.5517 230.353 38.0122 229.685 39.9306L227.1 47.8126H219.885L217.549 40.014C216.966 38.0539 216.132 35.7185 214.839 33.3414H214.13C215.423 35.5517 215.589 38.2207 215.589 40.2642V47.8126H202.953V22.6235H221.344L222.179 25.4177C222.888 27.7531 223.179 30.8809 223.179 33.3414H223.68C223.68 30.8809 224.014 27.7531 224.722 25.4177L225.557 22.6235Z" fill="#424242"/>
<path d="M200.935 22.6235V33.5916C200.935 42.4328 195.847 48.2297 183.795 48.2297C171.742 48.2297 166.654 42.4328 166.654 33.5916V22.6235H180.5V31.0477C180.5 33.4248 181.292 35.2181 183.836 35.2181C186.088 35.2181 187.047 33.6333 187.047 31.0477V22.6235H200.935Z" fill="#424242"/>
<path d="M149.783 29.5684L156.506 5.29297L169.367 8.85454L162.645 33.13L149.783 29.5684Z" fill="#424242"/>
<path d="M140.005 34.8844C147.386 34.8844 149.346 40.014 149.346 47.8126H135.292C135.292 43.4337 133.082 41.0149 128.453 41.3068V47.8126H115.107V22.6235H128.453V28.4204C132.748 28.7123 135.292 26.4186 135.292 22.6235H149.346C149.346 30.1302 146.761 34.2589 140.005 34.2589V34.8844Z" fill="#424242"/>
<path d="M103.841 34.8844C111.222 34.8844 113.182 40.014 113.182 47.8126H99.128C99.128 43.4337 96.9177 41.0149 92.2886 41.3068V47.8126H78.9434V22.6235H92.2886V28.4204C96.5841 28.7123 99.128 26.4186 99.128 22.6235H113.182C113.182 30.1302 110.597 34.2589 103.841 34.2589V34.8844Z" fill="#424242"/>
</svg>
