<svg width="136" height="48" viewBox="0 0 136 48" fill="none" xmlns="http://www.w3.org/2000/svg">
<rect x="14.4155" y="16.1716" width="24.3953" height="15.7806" transform="rotate(-3.19776 14.4155 16.1716)" fill="#00D2BA"/>
<path d="M14.2207 12.6937L23.0328 12.2013L25.8314 15.5355L14.4151 16.1733L14.2207 12.6937Z" fill="#00D2BA"/>
<path d="M15.8657 14.6749L22.3148 14.3146" stroke="#212121" stroke-width="1.03488"/>
<path d="M26.3674 27.6228C30.7926 28.6434 31.2582 31.9906 30.1795 36.6674L21.7542 34.7242C22.3599 32.0982 21.3694 30.3421 18.5539 29.8771L17.6541 33.7786L9.65379 31.9334L13.1377 16.8277L21.138 18.6728L20.3362 22.1492C22.8709 22.9181 24.7132 21.8943 25.2381 19.6185L33.6634 21.5616C32.6252 26.0633 30.5041 28.1818 26.4539 27.2477L26.3674 27.6228Z" fill="#212121"/>
<path d="M117.346 22.0245H126.346V34.0508H120.293V30.4469C120.293 29.4713 120.392 28.197 121.03 27.1417H120.711C120.134 28.197 119.636 29.3717 119.317 30.2876L118.083 34.0508H114.638L113.523 30.3275C113.244 29.3916 112.846 28.2766 112.229 27.1417H111.89C112.508 28.197 112.587 29.4713 112.587 30.4469V34.0508H106.554V22.0245H115.335L115.733 23.3586C116.072 24.4736 116.211 25.9669 116.211 27.1417H116.45C116.45 25.9669 116.609 24.4736 116.948 23.3586L117.346 22.0245Z" fill="#212121"/>
<path d="M105.59 22.0245V27.2612C105.59 31.4823 103.161 34.25 97.4066 34.25C91.6523 34.25 89.2231 31.4823 89.2231 27.2612V22.0245H95.8336V26.0466C95.8336 27.1815 96.2119 28.0377 97.4265 28.0377C98.5017 28.0377 98.9597 27.2811 98.9597 26.0466V22.0245H105.59Z" fill="#212121"/>
<path d="M81.1674 25.3401L84.377 13.75L90.5174 15.4504L87.3078 27.0406L81.1674 25.3401Z" fill="#212121"/>
<path d="M76.4992 27.8784C80.0235 27.8784 80.9593 30.3275 80.9593 34.0508H74.2493C74.2493 31.9602 73.194 30.8053 70.9839 30.9447V34.0508H64.6123V22.0245H70.9839V24.7922C73.0347 24.9316 74.2493 23.8364 74.2493 22.0245H80.9593C80.9593 25.6085 79.7248 27.5797 76.4992 27.5797V27.8784Z" fill="#212121"/>
<path d="M59.2326 27.8784C62.7569 27.8784 63.6927 30.3275 63.6927 34.0508H56.9827C56.9827 31.9602 55.9274 30.8053 53.7173 30.9447V34.0508H47.3457V22.0245H53.7173V24.7922C55.7681 24.9316 56.9827 23.8364 56.9827 22.0245H63.6927C63.6927 25.6085 62.4582 27.5797 59.2326 27.5797V27.8784Z" fill="#212121"/>
</svg>
