<svg width="48" height="48" viewBox="0 0 48 48" fill="none" xmlns="http://www.w3.org/2000/svg">
<rect x="13.7622" y="16.1716" width="24.3953" height="15.7806" transform="rotate(-3.19776 13.7622 16.1716)" fill="#00D2BA"/>
<path d="M13.5674 12.6937L22.3795 12.2013L25.1781 15.5355L13.7618 16.1733L13.5674 12.6937Z" fill="#00D2BA"/>
<path d="M15.2124 14.6749L21.6614 14.3146" stroke="#424242" stroke-width="1.03488"/>
<path d="M25.7141 27.6228C30.1393 28.6434 30.6048 31.9906 29.5262 36.6674L21.1009 34.7242C21.7065 32.0982 20.7161 30.3421 17.9006 29.8771L17.0008 33.7786L9.00047 31.9334L12.4844 16.8277L20.4847 18.6728L19.6829 22.1492C22.2176 22.9181 24.0599 21.8943 24.5848 19.6185L33.0101 21.5616C31.9719 26.0633 29.8508 28.1818 25.8006 27.2477L25.7141 27.6228Z" fill="#424242"/>
</svg>
