<svg width="357" height="207" viewBox="0 0 357 207" fill="none" xmlns="http://www.w3.org/2000/svg">
<g clip-path="url(#clip0_4596_78767)">
<g filter="url(#filter0_dd_4596_78767)">
<rect x="64.1523" y="67.5725" width="192.359" height="124.432" transform="rotate(-16.9708 64.1523 67.5725)" fill="#9E9E9E"/>
<path d="M56.1328 41.2983L122.695 20.9853L150.386 41.2656L64.1538 67.5816L56.1328 41.2983Z" fill="#9E9E9E"/>
<path d="M119.74 33.8484L122.584 43.1668L73.871 58.0327L71.0273 48.7144L119.74 33.8484Z" fill="#616161"/>
<path d="M250.271 167.047C250.271 157.559 257.963 149.867 267.451 149.867V149.867C276.94 149.867 284.631 157.559 284.631 167.047V167.047C284.631 176.536 276.94 184.227 267.451 184.227V184.227C257.963 184.227 250.271 176.536 250.271 167.047V167.047Z" fill="#9E9E9E"/>
<path d="M267.451 149.867L264.887 150.441L265.109 151.435L265.942 152.019L267.451 149.867ZM267.533 149.925L266.024 152.076L266.274 152.252L266.558 152.365L267.533 149.925ZM270.606 151.153L269.63 153.593L270.304 153.863L271.02 153.748L270.606 151.153ZM274.256 150.57L275.742 148.402L274.877 147.809L273.841 147.975L274.256 150.57ZM277.117 152.531L279.555 151.551L279.259 150.813L278.603 150.364L277.117 152.531ZM278.494 155.957L276.055 156.937L276.693 158.524L278.403 158.584L278.494 155.957ZM283.682 156.137L285.92 157.515L288.289 153.666L283.773 153.51L283.682 156.137ZM280.259 161.695L278.021 160.317L276.287 163.133L279.422 164.186L280.259 161.695ZM285.371 163.413L287.557 161.953L287.059 161.207L286.208 160.921L285.371 163.413ZM287.739 166.959L290.313 167.488L290.534 166.413L289.925 165.5L287.739 166.959ZM286.944 170.824L288.473 172.962L289.311 172.362L289.519 171.353L286.944 170.824ZM283.226 173.481L284.523 175.767L284.643 175.699L284.755 175.619L283.226 173.481ZM279.992 175.316L278.695 173.03L277.505 173.705L277.376 175.067L279.992 175.316ZM279.635 179.073L281.692 180.709L282.178 180.098L282.251 179.322L279.635 179.073ZM277.463 181.804L278.683 184.132L279.175 183.874L279.52 183.44L277.463 181.804ZM274.379 183.419L273.16 181.091L273.13 181.106L273.101 181.123L274.379 183.419ZM271.212 185.183L269.39 187.077L270.791 188.425L272.491 187.479L271.212 185.183ZM267.58 181.689L269.402 179.795L267.513 177.977L265.691 179.861L267.58 181.689ZM263.975 185.416L262.672 187.699L264.445 188.71L265.864 187.243L263.975 185.416ZM260.785 183.596L258.305 184.466L258.63 185.392L259.483 185.879L260.785 183.596ZM259.338 179.47L261.818 178.6L261.183 176.787L259.263 176.843L259.338 179.47ZM255.179 179.59L252.773 180.648L253.486 182.268L255.255 182.217L255.179 179.59ZM253.78 176.409L256.186 175.351L255.761 174.386L254.787 173.982L253.78 176.409ZM249.623 174.684L246.996 174.763L247.047 176.461L248.616 177.112L249.623 174.684ZM249.509 170.85L246.902 170.52L246.876 170.723L246.882 170.928L249.509 170.85ZM249.961 167.277L248.283 165.254L247.484 165.917L247.353 166.947L249.961 167.277ZM253.379 164.443L255.057 166.466L256.461 165.301L255.861 163.578L253.379 164.443ZM252.169 160.969L249.767 159.903L249.346 160.853L249.687 161.834L252.169 160.969ZM253.482 158.008L251.16 156.777L251.117 156.858L251.08 156.943L253.482 158.008ZM255.062 155.03L255.011 152.402L253.465 152.432L252.74 153.798L255.062 155.03ZM259.094 154.952L259.144 157.58L259.725 157.569L260.247 157.314L259.094 154.952ZM261.666 153.696L262.819 156.058L263.531 155.71L263.932 155.027L261.666 153.696ZM263.781 150.095L262.6 147.747L261.907 148.095L261.514 148.764L263.781 150.095ZM267.126 148.414L269.691 147.84L268.955 144.553L265.946 146.066L267.126 148.414ZM267.451 149.867L265.942 152.019L266.024 152.076L267.533 149.925L269.043 147.773L268.961 147.716L267.451 149.867ZM267.533 149.925L266.558 152.365L269.63 153.593L270.606 151.153L271.581 148.712L268.509 147.484L267.533 149.925ZM270.606 151.153L271.02 153.748L274.671 153.165L274.256 150.57L273.841 147.975L270.191 148.558L270.606 151.153ZM274.256 150.57L272.77 152.737L275.63 154.699L277.117 152.531L278.603 150.364L275.742 148.402L274.256 150.57ZM277.117 152.531L274.678 153.512L276.055 156.937L278.494 155.957L280.932 154.977L279.555 151.551L277.117 152.531ZM278.494 155.957L278.403 158.584L283.591 158.763L283.682 156.137L283.773 153.51L278.585 153.33L278.494 155.957ZM283.682 156.137L281.444 154.758L278.021 160.317L280.259 161.695L282.497 163.073L285.92 157.515L283.682 156.137ZM280.259 161.695L279.422 164.186L284.534 165.904L285.371 163.413L286.208 160.921L281.096 159.204L280.259 161.695ZM285.371 163.413L283.186 164.872L285.553 168.418L287.739 166.959L289.925 165.5L287.557 161.953L285.371 163.413ZM287.739 166.959L285.164 166.43L284.37 170.294L286.944 170.824L289.519 171.353L290.313 167.488L287.739 166.959ZM286.944 170.824L285.416 168.686L281.698 171.343L283.226 173.481L284.755 175.619L288.473 172.962L286.944 170.824ZM283.226 173.481L281.93 171.195L278.695 173.03L279.992 175.316L281.289 177.602L284.523 175.767L283.226 173.481ZM279.992 175.316L277.376 175.067L277.019 178.824L279.635 179.073L282.251 179.322L282.609 175.565L279.992 175.316ZM279.635 179.073L277.578 177.437L275.406 180.168L277.463 181.804L279.52 183.44L281.692 180.709L279.635 179.073ZM277.463 181.804L276.244 179.475L273.16 181.091L274.379 183.419L275.599 185.747L278.683 184.132L277.463 181.804ZM274.379 183.419L273.101 181.123L269.933 182.887L271.212 185.183L272.491 187.479L275.658 185.715L274.379 183.419ZM271.212 185.183L273.034 183.289L269.402 179.795L267.58 181.689L265.758 183.582L269.39 187.077L271.212 185.183ZM267.58 181.689L265.691 179.861L262.086 183.589L263.975 185.416L265.864 187.243L269.469 183.516L267.58 181.689ZM263.975 185.416L265.277 183.133L262.088 181.313L260.785 183.596L259.483 185.879L262.672 187.699L263.975 185.416ZM260.785 183.596L263.265 182.726L261.818 178.6L259.338 179.47L256.858 180.339L258.305 184.466L260.785 183.596ZM259.338 179.47L259.263 176.843L255.103 176.963L255.179 179.59L255.255 182.217L259.414 182.097L259.338 179.47ZM255.179 179.59L257.585 178.532L256.186 175.351L253.78 176.409L251.374 177.467L252.773 180.648L255.179 179.59ZM253.78 176.409L254.787 173.982L250.63 172.257L249.623 174.684L248.616 177.112L252.773 178.837L253.78 176.409ZM249.623 174.684L252.25 174.606L252.136 170.772L249.509 170.85L246.882 170.928L246.996 174.763L249.623 174.684ZM249.509 170.85L252.117 171.179L252.568 167.606L249.961 167.277L247.353 166.947L246.902 170.52L249.509 170.85ZM249.961 167.277L251.638 169.3L255.057 166.466L253.379 164.443L251.702 162.419L248.283 165.254L249.961 167.277ZM253.379 164.443L255.861 163.578L254.651 160.104L252.169 160.969L249.687 161.834L250.897 165.307L253.379 164.443ZM252.169 160.969L254.572 162.035L255.885 159.074L253.482 158.008L251.08 156.943L249.767 159.903L252.169 160.969ZM253.482 158.008L255.804 159.24L257.384 156.261L255.062 155.03L252.74 153.798L251.16 156.777L253.482 158.008ZM255.062 155.03L255.112 157.657L259.144 157.58L259.094 154.952L259.043 152.325L255.011 152.402L255.062 155.03ZM259.094 154.952L260.247 157.314L262.819 156.058L261.666 153.696L260.512 151.335L257.94 152.591L259.094 154.952ZM261.666 153.696L263.932 155.027L266.047 151.426L263.781 150.095L261.514 148.764L259.399 152.365L261.666 153.696ZM263.781 150.095L264.961 152.444L268.306 150.762L267.126 148.414L265.946 146.066L262.6 147.747L263.781 150.095ZM267.126 148.414L264.561 148.988L264.887 150.441L267.451 149.867L270.016 149.293L269.691 147.84L267.126 148.414Z" fill="#9E9E9E"/>
<path d="M14.041 125.818C14.041 114.907 22.8865 106.061 33.798 106.061V106.061C44.7094 106.061 53.5549 114.907 53.5549 125.818V125.818C53.5549 136.729 44.7094 145.575 33.798 145.575V145.575C22.8865 145.575 14.041 136.729 14.041 125.818V125.818Z" fill="#9E9E9E"/>
<path d="M33.798 106.061L35.131 103.796L31.1698 101.465L31.1698 106.061L33.798 106.061ZM33.8841 106.112L32.5511 108.377L32.7365 108.486L32.9371 108.563L33.8841 106.112ZM36.9826 107.309L36.0356 109.76L36.7478 110.035L37.4965 109.886L36.9826 107.309ZM40.6134 106.585L41.9589 104.327L41.0907 103.81L40.0995 104.007L40.6134 106.585ZM43.5844 108.355L45.9239 107.158L45.5794 106.485L44.9298 106.097L43.5844 108.355ZM45.2737 111.656L42.9341 112.853L43.7354 114.419L45.4882 114.275L45.2737 111.656ZM50.4443 111.233L52.8544 112.281L54.6051 108.255L50.2298 108.613L50.4443 111.233ZM47.836 117.231L45.4258 116.182L44.0778 119.283L47.4145 119.825L47.836 117.231ZM53.1813 118.099L55.038 116.239L54.4386 115.641L53.6028 115.505L53.1813 118.099ZM56.1709 121.083L58.7989 121.056L58.7879 119.982L58.0275 119.223L56.1709 121.083ZM56.2108 124.957L58.1997 126.675L58.8491 125.923L58.8388 124.93L56.2108 124.957ZM53.2388 128.398L55.1048 130.249L55.1686 130.184L55.2278 130.116L53.2388 128.398ZM50.6023 131.056L48.7363 129.205L47.7528 130.197L48.0243 131.567L50.6023 131.056ZM51.3405 134.782L53.8062 135.691L54.0623 134.997L53.9185 134.271L51.3405 134.782ZM50.1351 138.049L52.0674 139.831L52.4206 139.448L52.6009 138.959L50.1351 138.049ZM47.7858 140.598L45.8535 138.816L45.8045 138.869L45.7585 138.925L47.7858 140.598ZM45.4942 143.376L44.5517 145.829L46.3177 146.507L47.5216 145.048L45.4942 143.376ZM40.7782 141.564L41.7207 139.11L39.224 138.151L38.3087 140.664L40.7782 141.564ZM39.0003 146.445L38.8031 149.066L40.7884 149.215L41.4697 147.345L39.0003 146.445ZM35.3653 146.172L33.5612 148.083L34.2388 148.723L35.1681 148.793L35.3653 146.172ZM32.1695 143.155L33.9736 141.244L32.5482 139.898L30.8521 140.881L32.1695 143.155ZM28.5503 145.251L26.9949 147.37L28.3804 148.387L29.8677 147.526L28.5503 145.251ZM25.746 143.193L27.3015 141.074L26.4172 140.425L25.3338 140.597L25.746 143.193ZM21.3147 143.896L19.1463 145.381L20.0855 146.753L21.727 146.492L21.3147 143.896ZM19.1713 140.766L16.8335 141.967L16.9092 142.115L17.0029 142.251L19.1713 140.766ZM17.5334 137.578L14.9859 136.932L14.7417 137.895L15.1956 138.779L17.5334 137.578ZM18.6311 133.25L21.1786 133.896L21.634 132.101L20.0963 131.068L18.6311 133.25ZM15.5439 131.177L13.0034 131.85L13.2569 132.807L14.0788 133.359L15.5439 131.177ZM14.7101 128.029L12.1423 128.589L12.1547 128.646L12.1696 128.702L14.7101 128.029ZM13.99 124.726L12.1947 122.807L11.104 123.827L11.4221 125.286L13.99 124.726ZM16.9539 121.954L18.7492 123.874L19.1947 123.457L19.4112 122.886L16.9539 121.954ZM17.9918 119.219L20.449 120.151L20.7401 119.384L20.543 118.587L17.9918 119.219ZM16.982 115.138L14.4698 114.366L14.2558 115.062L14.4308 115.769L16.982 115.138ZM18.0772 111.575L15.6587 110.546L15.6052 110.672L15.565 110.803L18.0772 111.575ZM19.683 107.799L18.9331 105.28L17.7483 105.633L17.2644 106.771L19.683 107.799ZM23.48 106.669L23.1747 104.059L22.9485 104.085L22.7302 104.15L23.48 106.669ZM27.2219 106.231L28.1549 103.774L27.5545 103.546L26.9165 103.621L27.2219 106.231ZM30.9842 107.66L30.0512 110.117L30.4326 110.262L30.84 110.284L30.9842 107.66ZM33.798 107.815L33.6538 110.439L36.4261 110.591L36.4261 107.815L33.798 107.815ZM33.798 106.061L32.465 108.326L32.5511 108.377L33.8841 106.112L35.2171 103.847L35.131 103.796L33.798 106.061ZM33.8841 106.112L32.9371 108.563L36.0356 109.76L36.9826 107.309L37.9296 104.857L34.8311 103.66L33.8841 106.112ZM36.9826 107.309L37.4965 109.886L41.1274 109.162L40.6134 106.585L40.0995 104.007L36.4687 104.731L36.9826 107.309ZM40.6134 106.585L39.268 108.842L42.2389 110.613L43.5844 108.355L44.9298 106.097L41.9589 104.327L40.6134 106.585ZM43.5844 108.355L41.2448 109.552L42.9341 112.853L45.2737 111.656L47.6133 110.459L45.9239 107.158L43.5844 108.355ZM45.2737 111.656L45.4882 114.275L50.6588 113.852L50.4443 111.233L50.2298 108.613L45.0592 109.037L45.2737 111.656ZM50.4443 111.233L48.0341 110.184L45.4258 116.182L47.836 117.231L50.2462 118.279L52.8544 112.281L50.4443 111.233ZM47.836 117.231L47.4145 119.825L52.7598 120.693L53.1813 118.099L53.6028 115.505L48.2575 114.636L47.836 117.231ZM53.1813 118.099L51.3247 119.959L54.3143 122.943L56.1709 121.083L58.0275 119.223L55.038 116.239L53.1813 118.099ZM56.1709 121.083L53.5429 121.11L53.5828 124.984L56.2108 124.957L58.8388 124.93L58.7989 121.056L56.1709 121.083ZM56.2108 124.957L54.2219 123.239L51.2499 126.68L53.2388 128.398L55.2278 130.116L58.1997 126.675L56.2108 124.957ZM53.2388 128.398L51.3728 126.547L48.7363 129.205L50.6023 131.056L52.4683 132.907L55.1048 130.249L53.2388 128.398ZM50.6023 131.056L48.0243 131.567L48.7624 135.293L51.3405 134.782L53.9185 134.271L53.1804 130.545L50.6023 131.056ZM51.3405 134.782L48.8747 133.872L47.6693 137.14L50.1351 138.049L52.6009 138.959L53.8062 135.691L51.3405 134.782ZM50.1351 138.049L48.2028 136.268L45.8535 138.816L47.7858 140.598L49.7181 142.379L52.0674 139.831L50.1351 138.049ZM47.7858 140.598L45.7585 138.925L43.4669 141.703L45.4942 143.376L47.5216 145.048L49.8132 142.27L47.7858 140.598ZM45.4942 143.376L46.4368 140.922L41.7207 139.11L40.7782 141.564L39.8356 144.017L44.5517 145.829L45.4942 143.376ZM40.7782 141.564L38.3087 140.664L36.5308 145.546L39.0003 146.445L41.4697 147.345L43.2476 142.463L40.7782 141.564ZM39.0003 146.445L39.1975 143.825L35.5625 143.551L35.3653 146.172L35.1681 148.793L38.8031 149.066L39.0003 146.445ZM35.3653 146.172L37.1694 144.261L33.9736 141.244L32.1695 143.155L30.3654 145.066L33.5612 148.083L35.3653 146.172ZM32.1695 143.155L30.8521 140.881L27.2329 142.977L28.5503 145.251L29.8677 147.526L33.4868 145.429L32.1695 143.155ZM28.5503 145.251L30.1058 143.133L27.3015 141.074L25.746 143.193L24.1906 145.311L26.9949 147.37L28.5503 145.251ZM25.746 143.193L25.3338 140.597L20.9025 141.301L21.3147 143.896L21.727 146.492L26.1583 145.788L25.746 143.193ZM21.3147 143.896L23.4832 142.411L21.3397 139.281L19.1713 140.766L17.0029 142.251L19.1463 145.381L21.3147 143.896ZM19.1713 140.766L21.5091 139.566L19.8713 136.377L17.5334 137.578L15.1956 138.779L16.8335 141.967L19.1713 140.766ZM17.5334 137.578L20.081 138.224L21.1786 133.896L18.6311 133.25L16.0836 132.604L14.9859 136.932L17.5334 137.578ZM18.6311 133.25L20.0963 131.068L17.0091 128.995L15.5439 131.177L14.0788 133.359L17.1659 135.432L18.6311 133.25ZM15.5439 131.177L18.0845 130.504L17.2507 127.356L14.7101 128.029L12.1696 128.702L13.0034 131.85L15.5439 131.177ZM14.7101 128.029L17.278 127.469L16.5578 124.166L13.99 124.726L11.4221 125.286L12.1423 128.589L14.7101 128.029ZM13.99 124.726L15.7852 126.646L18.7492 123.874L16.9539 121.954L15.1587 120.035L12.1947 122.807L13.99 124.726ZM16.9539 121.954L19.4112 122.886L20.449 120.151L17.9918 119.219L15.5345 118.286L14.4967 121.022L16.9539 121.954ZM17.9918 119.219L20.543 118.587L19.5332 114.507L16.982 115.138L14.4308 115.769L15.4405 119.85L17.9918 119.219ZM16.982 115.138L19.4942 115.91L20.5894 112.347L18.0772 111.575L15.565 110.803L14.4698 114.366L16.982 115.138ZM18.0772 111.575L20.4957 112.604L22.1015 108.828L19.683 107.799L17.2644 106.771L15.6587 110.546L18.0772 111.575ZM19.683 107.799L20.4328 110.318L24.2298 109.188L23.48 106.669L22.7302 104.15L18.9331 105.28L19.683 107.799ZM23.48 106.669L23.7853 109.279L27.5272 108.842L27.2219 106.231L26.9165 103.621L23.1747 104.059L23.48 106.669ZM27.2219 106.231L26.2888 108.688L30.0512 110.117L30.9842 107.66L31.9172 105.203L28.1549 103.774L27.2219 106.231ZM30.9842 107.66L30.84 110.284L33.6538 110.439L33.798 107.815L33.9421 105.19L31.1284 105.036L30.9842 107.66ZM33.798 107.815L36.4261 107.815L36.4261 106.061L33.798 106.061L31.1698 106.061L31.1698 107.815L33.798 107.815Z" fill="#9E9E9E"/>
<path d="M295.799 87.8476C295.799 75.6078 305.721 65.6855 317.961 65.6855V65.6855C330.201 65.6855 340.123 75.6078 340.123 87.8476V87.8476C340.123 100.087 330.201 110.01 317.961 110.01V110.01C305.721 110.01 295.799 100.087 295.799 87.8476V87.8476Z" fill="#9E9E9E"/>
<path d="M317.961 65.6855L314.524 65.6855L314.524 67.4546L315.963 68.4827L317.961 65.6855ZM318.042 65.7437L316.045 68.5408L316.378 68.7786L316.757 68.9315L318.042 65.7437ZM322.082 67.3719L320.797 70.5597L321.675 70.9136L322.61 70.7681L322.082 67.3719ZM326.858 66.6288L328.82 63.8072L327.69 63.0208L326.329 63.2325L326.858 66.6288ZM330.583 69.2198L333.784 67.9684L333.403 66.995L332.545 66.3982L330.583 69.2198ZM332.34 73.7149L329.139 74.9663L329.951 77.0436L332.179 77.1482L332.34 73.7149ZM339.121 74.0332L342.021 75.8793L345.205 70.8779L339.282 70.5999L339.121 74.0332ZM334.537 81.2324L331.638 79.3864L329.32 83.0266L333.387 84.4712L334.537 81.2324ZM341.181 83.5925L344.079 81.7444L343.444 80.7489L342.331 80.3537L341.181 83.5925ZM344.183 88.3005L347.533 89.0688L347.855 87.666L347.081 86.4525L344.183 88.3005ZM343.028 93.3394L344.955 96.1852L346.075 95.4264L346.378 94.1076L343.028 93.3394ZM338.076 96.6928L339.685 99.7299L339.85 99.6429L340.004 99.5386L338.076 96.6928ZM333.782 98.9678L332.173 95.9307L330.595 96.7667L330.372 98.5382L333.782 98.9678ZM333.166 103.861L335.782 106.09L336.448 105.309L336.576 104.291L333.166 103.861ZM330.207 107.335L331.689 110.436L332.349 110.121L332.823 109.564L330.207 107.335ZM326.097 109.299L324.615 106.198L324.58 106.215L324.545 106.233L326.097 109.299ZM321.864 111.442L319.381 113.818L321.143 115.659L323.416 114.508L321.864 111.442ZM317.307 106.679L319.791 104.303L317.427 101.832L314.944 104.183L317.307 106.679ZM312.386 111.339L310.543 114.24L312.804 115.677L314.749 113.835L312.386 111.339ZM308.33 108.762L305.033 109.735L305.398 110.972L306.486 111.663L308.33 108.762ZM306.712 103.28L310.008 102.307L309.298 99.9016L306.792 99.8434L306.712 103.28ZM301.274 103.153L298.056 104.362L298.873 106.535L301.194 106.589L301.274 103.153ZM299.677 98.8996L302.894 97.6912L302.412 96.4067L301.178 95.8076L299.677 98.8996ZM294.38 96.3285L290.945 96.2214L290.876 98.4478L292.879 99.4206L294.38 96.3285ZM294.537 91.3085L291.161 90.6642L291.11 90.9304L291.102 91.2013L294.537 91.3085ZM295.42 86.6796L293.408 83.8928L292.3 84.6928L292.044 86.0354L295.42 86.6796ZM300.123 83.2845L302.135 86.0713L304.067 84.677L303.439 82.3791L300.123 83.2845ZM298.858 78.6493L295.824 77.0344L295.183 78.2387L295.542 79.5547L298.858 78.6493ZM300.847 74.9116L297.938 73.0814L297.872 73.1868L297.813 73.2967L300.847 74.9116ZM303.195 71.1801L303.394 67.7488L301.367 67.631L300.285 69.35L303.195 71.1801ZM308.455 71.4859L308.255 74.9172L309.009 74.961L309.711 74.6852L308.455 71.4859ZM311.928 70.1221L313.185 73.3214L314.145 72.9444L314.739 72.1009L311.928 70.1221ZM315.071 65.6595L313.198 62.7775L312.642 63.1387L312.26 63.6807L315.071 65.6595ZM317.961 63.781L321.398 63.781L321.398 57.448L316.088 60.8991L317.961 63.781ZM317.961 65.6855L315.963 68.4827L316.045 68.5408L318.042 65.7437L320.04 62.9465L319.958 62.8884L317.961 65.6855ZM318.042 65.7437L316.757 68.9315L320.797 70.5597L322.082 67.3719L323.367 64.184L319.327 62.5558L318.042 65.7437ZM322.082 67.3719L322.61 70.7681L327.386 70.025L326.858 66.6288L326.329 63.2325L321.553 63.9756L322.082 67.3719ZM326.858 66.6288L324.895 69.4503L328.62 72.0414L330.583 69.2198L332.545 66.3982L328.82 63.8072L326.858 66.6288ZM330.583 69.2198L327.381 70.4711L329.139 74.9663L332.34 73.7149L335.541 72.4635L333.784 67.9684L330.583 69.2198ZM332.34 73.7149L332.179 77.1482L338.96 77.4665L339.121 74.0332L339.282 70.5999L332.501 70.2816L332.34 73.7149ZM339.121 74.0332L336.222 72.1872L331.638 79.3864L334.537 81.2324L337.437 83.0785L342.021 75.8793L339.121 74.0332ZM334.537 81.2324L333.387 84.4712L340.03 86.8313L341.181 83.5925L342.331 80.3537L335.688 77.9937L334.537 81.2324ZM341.181 83.5925L338.283 85.4406L341.285 90.1486L344.183 88.3005L347.081 86.4525L344.079 81.7444L341.181 83.5925ZM344.183 88.3005L340.833 87.5323L339.677 92.5712L343.028 93.3394L346.378 94.1076L347.533 89.0688L344.183 88.3005ZM343.028 93.3394L341.1 90.4935L336.149 93.8469L338.076 96.6928L340.004 99.5386L344.955 96.1852L343.028 93.3394ZM338.076 96.6928L336.467 93.6556L332.173 95.9307L333.782 98.9678L335.391 102.005L339.685 99.7299L338.076 96.6928ZM333.782 98.9678L330.372 98.5382L329.756 103.431L333.166 103.861L336.576 104.291L337.192 99.3975L333.782 98.9678ZM333.166 103.861L330.549 101.632L327.59 105.106L330.207 107.335L332.823 109.564L335.782 106.09L333.166 103.861ZM330.207 107.335L328.724 104.234L324.615 106.198L326.097 109.299L327.579 112.4L331.689 110.436L330.207 107.335ZM326.097 109.299L324.545 106.233L320.312 108.375L321.864 111.442L323.416 114.508L327.649 112.366L326.097 109.299ZM321.864 111.442L324.348 109.066L319.791 104.303L317.307 106.679L314.824 109.055L319.381 113.818L321.864 111.442ZM317.307 106.679L314.944 104.183L310.023 108.843L312.386 111.339L314.749 113.835L319.671 109.175L317.307 106.679ZM312.386 111.339L314.229 108.438L310.173 105.861L308.33 108.762L306.486 111.663L310.543 114.24L312.386 111.339ZM308.33 108.762L311.626 107.789L310.008 102.307L306.712 103.28L303.415 104.252L305.033 109.735L308.33 108.762ZM306.712 103.28L306.792 99.8434L301.354 99.717L301.274 103.153L301.194 106.589L306.632 106.716L306.712 103.28ZM301.274 103.153L304.492 101.945L302.894 97.6912L299.677 98.8996L296.459 100.108L298.056 104.362L301.274 103.153ZM299.677 98.8996L301.178 95.8076L295.881 93.2365L294.38 96.3285L292.879 99.4206L298.176 101.992L299.677 98.8996ZM294.38 96.3285L297.816 96.4357L297.972 91.4156L294.537 91.3085L291.102 91.2013L290.945 96.2214L294.38 96.3285ZM294.537 91.3085L297.913 91.9527L298.796 87.3239L295.42 86.6796L292.044 86.0354L291.161 90.6642L294.537 91.3085ZM295.42 86.6796L297.432 89.4665L302.135 86.0713L300.123 83.2845L298.112 80.4977L293.408 83.8928L295.42 86.6796ZM300.123 83.2845L303.439 82.3791L302.173 77.744L298.858 78.6493L295.542 79.5547L296.808 84.1898L300.123 83.2845ZM298.858 78.6493L301.892 80.2643L303.881 76.5265L300.847 74.9116L297.813 73.2967L295.824 77.0344L298.858 78.6493ZM300.847 74.9116L303.756 76.7418L306.104 73.0103L303.195 71.1801L300.285 69.35L297.938 73.0814L300.847 74.9116ZM303.195 71.1801L302.995 74.6114L308.255 74.9172L308.455 71.4859L308.654 68.0546L303.394 67.7488L303.195 71.1801ZM308.455 71.4859L309.711 74.6852L313.185 73.3214L311.928 70.1221L310.672 66.9227L307.199 68.2866L308.455 71.4859ZM311.928 70.1221L314.739 72.1009L317.881 67.6383L315.071 65.6595L312.26 63.6807L309.118 68.1433L311.928 70.1221ZM315.071 65.6595L316.944 68.5414L319.834 66.663L317.961 63.781L316.088 60.8991L313.198 62.7775L315.071 65.6595ZM317.961 63.781L314.524 63.781L314.524 65.6855L317.961 65.6855L321.398 65.6855L321.398 63.781L317.961 63.781Z" fill="#9E9E9E"/>
<path d="M60.4336 150.004C60.4336 145.185 64.3409 141.277 69.1607 141.277V141.277C73.9806 141.277 77.8879 145.185 77.8879 150.004V150.004C77.8879 154.824 73.9806 158.732 69.1607 158.732V158.732C64.3409 158.732 60.4336 154.824 60.4336 150.004V150.004Z" fill="#9E9E9E"/>
<path d="M69.1607 141.277L67.8072 141.277L67.8072 141.974L68.3742 142.379L69.1607 141.277ZM69.2421 141.335L68.4555 142.437L68.5915 142.534L68.7469 142.595L69.2421 141.335ZM70.7835 141.941L70.2883 143.201L70.6294 143.335L70.9915 143.279L70.7835 141.941ZM72.6642 141.649L73.4371 140.538L72.9919 140.228L72.4561 140.311L72.6642 141.649ZM74.131 142.669L75.3916 142.176L75.2418 141.793L74.9039 141.558L74.131 142.669ZM74.823 144.439L73.5624 144.932L73.8821 145.75L74.7595 145.791L74.823 144.439ZM77.4935 144.565L78.6352 145.292L79.8892 143.322L77.5569 143.213L77.4935 144.565ZM75.6884 147.4L74.5467 146.673L73.6339 148.106L75.2353 148.675L75.6884 147.4ZM78.3044 148.329L79.4456 147.601L79.1956 147.209L78.7575 147.053L78.3044 148.329ZM79.4867 150.183L80.806 150.485L80.9326 149.933L80.6279 149.455L79.4867 150.183ZM79.0317 152.167L79.7907 153.288L80.2319 152.989L80.351 152.47L79.0317 152.167ZM77.0819 153.488L77.7156 154.684L77.7803 154.649L77.8409 154.608L77.0819 153.488ZM75.391 154.384L74.7573 153.188L74.136 153.517L74.0482 154.214L75.391 154.384ZM75.1483 156.31L76.1786 157.188L76.4406 156.88L76.4911 156.48L75.1483 156.31ZM73.9829 157.678L74.5666 158.9L74.8265 158.775L75.0133 158.556L73.9829 157.678ZM72.3647 158.452L71.781 157.231L71.7671 157.237L71.7535 157.244L72.3647 158.452ZM70.6978 159.296L69.7198 160.231L70.4136 160.956L71.309 160.503L70.6978 159.296ZM68.9034 157.42L69.8813 156.484L68.9505 155.511L67.9727 156.437L68.9034 157.42ZM66.9654 159.255L66.2396 160.398L67.13 160.963L67.896 160.238L66.9654 159.255ZM65.368 158.24L64.0699 158.623L64.2136 159.11L64.6422 159.383L65.368 158.24ZM64.7309 156.081L66.0291 155.698L65.7496 154.751L64.7624 154.728L64.7309 156.081ZM62.5897 156.032L61.3226 156.507L61.6441 157.363L62.5582 157.385L62.5897 156.032ZM61.9607 154.357L63.2277 153.881L63.0378 153.375L62.5517 153.139L61.9607 154.357ZM59.875 153.344L58.5222 153.302L58.4948 154.179L59.284 154.562L59.875 153.344ZM59.9367 151.367L58.6072 151.114L58.5872 151.218L58.5839 151.325L59.9367 151.367ZM60.2845 149.545L59.4923 148.447L59.0559 148.762L58.955 149.291L60.2845 149.545ZM62.1365 148.208L62.9288 149.305L63.6893 148.756L63.4422 147.851L62.1365 148.208ZM61.6382 146.382L60.4434 145.746L60.191 146.221L60.3325 146.739L61.6382 146.382ZM62.4216 144.91L61.2759 144.19L61.2498 144.231L61.2268 144.275L62.4216 144.91ZM63.3459 143.441L63.4245 142.09L62.6261 142.043L62.2003 142.72L63.3459 143.441ZM65.4174 143.561L65.3389 144.913L65.6355 144.93L65.9121 144.821L65.4174 143.561ZM66.7852 143.024L67.2799 144.284L67.658 144.136L67.8919 143.804L66.7852 143.024ZM68.0226 141.267L67.285 140.132L67.0662 140.274L66.9159 140.488L68.0226 141.267ZM69.1607 140.527L70.5142 140.527L70.5142 138.033L68.4232 139.393L69.1607 140.527ZM69.1607 141.277L68.3742 142.379L68.4555 142.437L69.2421 141.335L70.0287 140.234L69.9473 140.176L69.1607 141.277ZM69.2421 141.335L68.7469 142.595L70.2883 143.201L70.7835 141.941L71.2786 140.682L69.7373 140.076L69.2421 141.335ZM70.7835 141.941L70.9915 143.279L72.8723 142.986L72.6642 141.649L72.4561 140.311L70.5754 140.604L70.7835 141.941ZM72.6642 141.649L71.8913 142.76L73.3581 143.78L74.131 142.669L74.9039 141.558L73.4371 140.538L72.6642 141.649ZM74.131 142.669L72.8704 143.162L73.5624 144.932L74.823 144.439L76.0836 143.946L75.3916 142.176L74.131 142.669ZM74.823 144.439L74.7595 145.791L77.43 145.917L77.4935 144.565L77.5569 143.213L74.8864 143.087L74.823 144.439ZM77.4935 144.565L76.3518 143.838L74.5467 146.673L75.6884 147.4L76.8301 148.126L78.6352 145.292L77.4935 144.565ZM75.6884 147.4L75.2353 148.675L77.8513 149.604L78.3044 148.329L78.7575 147.053L76.1415 146.124L75.6884 147.4ZM78.3044 148.329L77.1632 149.057L78.3455 150.911L79.4867 150.183L80.6279 149.455L79.4456 147.601L78.3044 148.329ZM79.4867 150.183L78.1675 149.88L77.7125 151.865L79.0317 152.167L80.351 152.47L80.806 150.485L79.4867 150.183ZM79.0317 152.167L78.2727 151.046L76.3229 152.367L77.0819 153.488L77.8409 154.608L79.7907 153.288L79.0317 152.167ZM77.0819 153.488L76.4482 152.292L74.7573 153.188L75.391 154.384L76.0247 155.579L77.7156 154.684L77.0819 153.488ZM75.391 154.384L74.0482 154.214L73.8054 156.141L75.1483 156.31L76.4911 156.48L76.7339 154.553L75.391 154.384ZM75.1483 156.31L74.1179 155.433L72.9526 156.801L73.9829 157.678L75.0133 158.556L76.1786 157.188L75.1483 156.31ZM73.9829 157.678L73.3992 156.457L71.781 157.231L72.3647 158.452L72.9484 159.673L74.5666 158.9L73.9829 157.678ZM72.3647 158.452L71.7535 157.244L70.0866 158.088L70.6978 159.296L71.309 160.503L72.9759 159.66L72.3647 158.452ZM70.6978 159.296L71.6758 158.36L69.8813 156.484L68.9034 157.42L67.9254 158.356L69.7198 160.231L70.6978 159.296ZM68.9034 157.42L67.9727 156.437L66.0348 158.272L66.9654 159.255L67.896 160.238L69.834 158.403L68.9034 157.42ZM66.9654 159.255L67.6912 158.113L66.0938 157.098L65.368 158.24L64.6422 159.383L66.2396 160.398L66.9654 159.255ZM65.368 158.24L66.6662 157.857L66.0291 155.698L64.7309 156.081L63.4328 156.464L64.0699 158.623L65.368 158.24ZM64.7309 156.081L64.7624 154.728L62.6212 154.678L62.5897 156.032L62.5582 157.385L64.6995 157.435L64.7309 156.081ZM62.5897 156.032L63.8568 155.556L63.2277 153.881L61.9607 154.357L60.6936 154.832L61.3226 156.507L62.5897 156.032ZM61.9607 154.357L62.5517 153.139L60.4661 152.127L59.875 153.344L59.284 154.562L61.3696 155.574L61.9607 154.357ZM59.875 153.344L61.2279 153.386L61.2895 151.41L59.9367 151.367L58.5839 151.325L58.5222 153.302L59.875 153.344ZM59.9367 151.367L61.2662 151.621L61.614 149.798L60.2845 149.545L58.955 149.291L58.6072 151.114L59.9367 151.367ZM60.2845 149.545L61.0767 150.642L62.9288 149.305L62.1365 148.208L61.3443 147.11L59.4923 148.447L60.2845 149.545ZM62.1365 148.208L63.4422 147.851L62.9438 146.026L61.6382 146.382L60.3325 146.739L60.8309 148.564L62.1365 148.208ZM61.6382 146.382L62.8329 147.018L63.6164 145.546L62.4216 144.91L61.2268 144.275L60.4434 145.746L61.6382 146.382ZM62.4216 144.91L63.5672 145.631L64.4916 144.162L63.3459 143.441L62.2003 142.72L61.2759 144.19L62.4216 144.91ZM63.3459 143.441L63.2674 144.792L65.3389 144.913L65.4174 143.561L65.496 142.21L63.4245 142.09L63.3459 143.441ZM65.4174 143.561L65.9121 144.821L67.2799 144.284L66.7852 143.024L66.2906 141.765L64.9227 142.302L65.4174 143.561ZM66.7852 143.024L67.8919 143.804L69.1293 142.046L68.0226 141.267L66.9159 140.488L65.6786 142.245L66.7852 143.024ZM68.0226 141.267L68.7602 142.402L69.8983 141.662L69.1607 140.527L68.4232 139.393L67.285 140.132L68.0226 141.267ZM69.1607 140.527L67.8072 140.527L67.8072 141.277L69.1607 141.277L70.5142 141.277L70.5142 140.527L69.1607 140.527Z" fill="#9E9E9E"/>
<path d="M298.375 130.54C298.375 126.507 301.644 123.238 305.676 123.238V123.238C309.709 123.238 312.978 126.507 312.978 130.54V130.54C312.978 134.572 309.709 137.841 305.676 137.841V137.841C301.644 137.841 298.375 134.572 298.375 130.54V130.54Z" fill="#9E9E9E"/>
<path d="M305.676 123.238L306.591 122.24L305.882 121.591L305.036 122.046L305.676 123.238ZM305.75 123.306L304.836 124.304L305.014 124.467L305.237 124.558L305.75 123.306ZM307.275 123.931L306.762 125.184L307.072 125.311L307.405 125.279L307.275 123.931ZM309.165 123.749L310.041 122.718L309.605 122.347L309.035 122.402L309.165 123.749ZM310.533 124.911L311.849 124.595L311.746 124.165L311.409 123.879L310.533 124.911ZM310.972 126.746L309.656 127.061L309.852 127.879L310.671 128.066L310.972 126.746ZM313.58 127.341L314.54 128.296L316.263 126.565L313.881 126.022L313.58 127.341ZM311.217 129.716L310.257 128.761L309.096 129.928L310.466 130.842L311.217 129.716ZM313.514 131.247L314.819 130.888L314.685 130.401L314.265 130.121L313.514 131.247ZM314.107 133.403L315.259 134.114L315.569 133.612L315.412 133.043L314.107 133.403ZM313.007 135.185L313.32 136.501L313.865 136.372L314.159 135.896L313.007 135.185ZM310.701 135.732L310.803 137.082L310.91 137.074L311.013 137.049L310.701 135.732ZM308.814 135.876L308.711 134.526L308.033 134.578L307.67 135.152L308.814 135.876ZM307.787 137.499L308.286 138.757L308.695 138.594L308.93 138.223L307.787 137.499ZM306.112 138.164L306.008 139.513L306.321 139.538L306.612 139.422L306.112 138.164ZM304.313 138.025L304.185 139.372L304.197 139.373L304.209 139.374L304.313 138.025ZM302.436 137.846L301.1 138.06L301.265 139.094L302.308 139.193L302.436 137.846ZM302.027 135.296L303.364 135.081L303.157 133.796L301.865 133.952L302.027 135.296ZM299.388 135.614L298.108 136.052L298.463 137.088L299.55 136.957L299.388 135.614ZM298.768 133.806L297.54 133.236L297.312 133.73L297.488 134.244L298.768 133.806ZM299.708 131.778L300.936 132.347L301.338 131.479L300.655 130.81L299.708 131.778ZM298.19 130.293L296.962 129.722L296.559 130.591L297.243 131.26L298.19 130.293ZM298.942 128.674L300.169 129.244L300.382 128.786L300.243 128.3L298.942 128.674ZM298.299 126.437L297.457 125.378L296.749 125.941L296.999 126.81L298.299 126.437ZM299.87 125.187L299.252 123.983L299.132 124.044L299.027 124.128L299.87 125.187ZM301.532 124.333L301.973 123.054L301.427 122.866L300.913 123.129L301.532 124.333ZM303.671 125.071L303.23 126.351L304.097 126.65L304.696 125.956L303.671 125.071ZM304.886 123.663L304.246 122.471L304.025 122.589L303.862 122.779L304.886 123.663ZM305.676 123.238L304.762 124.237L304.836 124.304L305.75 123.306L306.664 122.308L306.591 122.24L305.676 123.238ZM305.75 123.306L305.237 124.558L306.762 125.184L307.275 123.931L307.789 122.679L306.264 122.054L305.75 123.306ZM307.275 123.931L307.405 125.279L309.295 125.097L309.165 123.749L309.035 122.402L307.146 122.584L307.275 123.931ZM309.165 123.749L308.289 124.781L309.656 125.942L310.533 124.911L311.409 123.879L310.041 122.718L309.165 123.749ZM310.533 124.911L309.216 125.226L309.656 127.061L310.972 126.746L312.288 126.431L311.849 124.595L310.533 124.911ZM310.972 126.746L310.671 128.066L313.279 128.661L313.58 127.341L313.881 126.022L311.273 125.427L310.972 126.746ZM313.58 127.341L312.621 126.386L310.257 128.761L311.217 129.716L312.176 130.671L314.54 128.296L313.58 127.341ZM311.217 129.716L310.466 130.842L312.763 132.374L313.514 131.247L314.265 130.121L311.968 128.59L311.217 129.716ZM313.514 131.247L312.209 131.607L312.803 133.762L314.107 133.403L315.412 133.043L314.819 130.888L313.514 131.247ZM314.107 133.403L312.956 132.692L311.856 134.474L313.007 135.185L314.159 135.896L315.259 134.114L314.107 133.403ZM313.007 135.185L312.695 133.868L310.388 134.415L310.701 135.732L311.013 137.049L313.32 136.501L313.007 135.185ZM310.701 135.732L310.598 134.383L308.711 134.526L308.814 135.876L308.916 137.226L310.803 137.082L310.701 135.732ZM308.814 135.876L307.67 135.152L306.643 136.775L307.787 137.499L308.93 138.223L309.957 136.6L308.814 135.876ZM307.787 137.499L307.287 136.241L305.613 136.906L306.112 138.164L306.612 139.422L308.286 138.757L307.787 137.499ZM306.112 138.164L306.217 136.815L304.418 136.675L304.313 138.025L304.209 139.374L306.008 139.513L306.112 138.164ZM304.313 138.025L304.442 136.677L302.564 136.498L302.436 137.846L302.308 139.193L304.185 139.372L304.313 138.025ZM302.436 137.846L303.773 137.631L303.364 135.081L302.027 135.296L300.691 135.51L301.1 138.06L302.436 137.846ZM302.027 135.296L301.865 133.952L299.226 134.27L299.388 135.614L299.55 136.957L302.189 136.639L302.027 135.296ZM299.388 135.614L300.668 135.175L300.049 133.367L298.768 133.806L297.488 134.244L298.108 136.052L299.388 135.614ZM298.768 133.806L299.996 134.375L300.936 132.347L299.708 131.778L298.48 131.209L297.54 133.236L298.768 133.806ZM299.708 131.778L300.655 130.81L299.136 129.325L298.19 130.293L297.243 131.26L298.762 132.746L299.708 131.778ZM298.19 130.293L299.417 130.863L300.169 129.244L298.942 128.674L297.715 128.103L296.962 129.722L298.19 130.293ZM298.942 128.674L300.243 128.3L299.6 126.063L298.299 126.437L296.999 126.81L297.641 129.048L298.942 128.674ZM298.299 126.437L299.142 127.496L300.713 126.246L299.87 125.187L299.027 124.128L297.457 125.378L298.299 126.437ZM299.87 125.187L300.488 126.391L302.15 125.537L301.532 124.333L300.913 123.129L299.252 123.983L299.87 125.187ZM301.532 124.333L301.09 125.613L303.23 126.351L303.671 125.071L304.112 123.792L301.973 123.054L301.532 124.333ZM303.671 125.071L304.696 125.956L305.911 124.547L304.886 123.663L303.862 122.779L302.646 124.187L303.671 125.071ZM304.886 123.663L305.527 124.855L306.317 124.431L305.676 123.238L305.036 122.046L304.246 122.471L304.886 123.663Z" fill="#9E9E9E"/>
</g>
<path d="M226.041 92.5994V106.236H232.228V112.739H226.041V122.209H218.086V112.739H195.422V107.499L216.129 76.6899H224.842L204.955 106.236H218.086V92.5994H226.041Z" fill="white"/>
<path d="M191.628 102.953C191.628 109.435 190.26 114.38 187.525 117.79C184.789 121.199 180.664 122.903 175.151 122.903C169.721 122.903 165.533 121.178 162.587 117.727C159.641 114.275 158.168 109.351 158.168 102.953V95.8826C158.168 89.4852 159.62 84.5819 162.524 81.1727C165.47 77.7215 169.616 75.9958 174.961 75.9958C180.349 75.9958 184.473 77.7215 187.335 81.1727C190.197 84.5819 191.628 89.4852 191.628 95.8826V102.953ZM183.484 95.8195C183.484 93.21 183.232 91.1056 182.727 89.5062C182.264 87.9069 181.632 86.6863 180.833 85.8445C180.075 84.9607 179.17 84.3714 178.118 84.0768C177.108 83.7822 176.056 83.6349 174.961 83.6349C173.909 83.6349 172.857 83.7822 171.805 84.0768C170.794 84.3714 169.869 84.9607 169.027 85.8445C168.227 86.7284 167.575 87.97 167.07 89.5694C166.565 91.1687 166.312 93.2521 166.312 95.8195V103.017C166.312 105.626 166.565 107.731 167.07 109.33C167.617 110.929 168.311 112.171 169.153 113.055C169.995 113.939 170.942 114.528 171.994 114.822C173.046 115.117 174.098 115.264 175.151 115.264C176.245 115.264 177.297 115.117 178.307 114.822C179.317 114.528 180.201 113.96 180.959 113.118C181.716 112.234 182.327 110.992 182.79 109.393C183.253 107.794 183.484 105.668 183.484 103.017V95.8195Z" fill="white"/>
<path d="M147.74 92.5994V106.236H153.927V112.739H147.74V122.209H139.786V112.739H117.121V107.499L137.829 76.6899H146.541L126.654 106.236H139.786V92.5994H147.74Z" fill="white"/>
</g>
<defs>
<filter id="filter0_dd_4596_78767" x="6.7072" y="8.49491" width="345.545" height="186.077" filterUnits="userSpaceOnUse" color-interpolation-filters="sRGB">
<feFlood flood-opacity="0" result="BackgroundImageFix"/>
<feColorMatrix in="SourceAlpha" type="matrix" values="0 0 0 0 0 0 0 0 0 0 0 0 0 0 0 0 0 0 127 0" result="hardAlpha"/>
<feMorphology radius="1.46544" operator="erode" in="SourceAlpha" result="effect1_dropShadow_4596_78767"/>
<feOffset dy="1.46544"/>
<feGaussianBlur stdDeviation="1.46544"/>
<feComposite in2="hardAlpha" operator="out"/>
<feColorMatrix type="matrix" values="0 0 0 0 0 0 0 0 0 0 0 0 0 0 0 0 0 0 0.1 0"/>
<feBlend mode="normal" in2="BackgroundImageFix" result="effect1_dropShadow_4596_78767"/>
<feColorMatrix in="SourceAlpha" type="matrix" values="0 0 0 0 0 0 0 0 0 0 0 0 0 0 0 0 0 0 127 0" result="hardAlpha"/>
<feOffset dy="1.46544"/>
<feGaussianBlur stdDeviation="2.19816"/>
<feComposite in2="hardAlpha" operator="out"/>
<feColorMatrix type="matrix" values="0 0 0 0 0 0 0 0 0 0 0 0 0 0 0 0 0 0 0.1 0"/>
<feBlend mode="normal" in2="effect1_dropShadow_4596_78767" result="effect2_dropShadow_4596_78767"/>
<feBlend mode="normal" in="SourceGraphic" in2="effect2_dropShadow_4596_78767" result="shape"/>
</filter>
<clipPath id="clip0_4596_78767">
<rect width="356.101" height="206.627" fill="white"/>
</clipPath>
</defs>
</svg>
